<svg width="84" height="84" viewBox="0 0 84 84" fill="none" xmlns="http://www.w3.org/2000/svg">
<path d="M38.2804 50.8602C38.2804 50.8602 38.3104 50.9602 38.3304 51.0102C38.1104 51.8202 37.7404 52.9302 37.2404 53.8902C37.1704 54.0302 37.0904 54.1702 37.0104 54.3002C36.9104 54.4702 36.8104 54.6402 36.7004 54.7902C36.1404 54.1102 36.8704 51.2202 37.7304 49.9802C37.9504 50.2202 38.2304 50.5802 38.2804 50.8602ZM40.9904 40.9602C40.9204 40.9802 40.8304 41.0402 40.7604 41.0902C40.6904 41.1402 40.6104 41.1702 40.5304 41.1802C40.1804 42.8702 39.1604 47.6402 38.3504 49.1802C38.4504 49.2802 38.6004 49.4402 38.7404 49.6202C38.7904 49.5102 38.8604 49.3402 38.9404 49.1402C39.0004 48.9802 39.0704 48.8002 39.1504 48.5902C39.2804 48.2402 39.4304 47.8102 39.5904 47.3202C39.6404 47.1602 39.7004 46.9902 39.7504 46.8102C39.8604 46.4602 39.9704 46.0802 40.0804 45.6702C40.1304 45.4702 40.1904 45.2602 40.2404 45.0502C40.2904 44.8302 40.3504 44.6102 40.4004 44.3902C40.4904 44.0202 40.5704 43.6302 40.6504 43.2302C40.7104 42.9402 40.7604 42.6502 40.8104 42.3402C40.8704 42.0402 40.9204 41.7302 40.9604 41.4102C40.9804 41.2702 41.0004 41.1202 41.0104 40.9702C41.0004 40.9702 41.0004 40.9602 40.9904 40.9602ZM40.9604 34.3802C40.6004 34.2402 40.1904 34.2202 39.7804 34.3002C39.7804 34.3002 40.7404 38.2402 40.7104 40.0102C40.8404 39.9602 40.9704 39.9402 41.1004 39.9502C41.1404 39.3902 41.1604 38.8202 41.1604 38.2502C41.1604 36.9302 41.0804 35.6002 40.9604 34.3802ZM33.1004 29.6902C33.2704 29.5502 33.4904 29.4102 33.7504 29.2602C33.4904 29.4002 33.2704 29.5502 33.1004 29.6902ZM53.6404 40.0002C53.2404 38.6702 54.5204 37.7102 54.5804 37.6702H54.5904C53.7704 36.1202 52.8304 34.4002 51.9904 32.8702L51.6804 33.2002C51.5904 33.3102 51.4504 33.3602 51.3204 33.3602C51.2004 33.3602 51.0704 33.3202 50.9804 33.2302C50.7804 33.0402 50.7604 32.7202 50.9504 32.5202L51.4704 31.9602C50.6904 30.5602 50.0304 29.4302 49.6804 28.8802C49.6104 28.7702 49.5104 28.6102 49.3804 28.3902C49.2304 28.1502 49.0604 27.8502 48.8504 27.4902C48.7304 27.2802 48.5904 27.0502 48.4504 26.8002C48.4404 26.7902 48.4404 26.7702 48.4304 26.7602L47.6104 27.6302C47.5104 27.7402 47.3804 27.7902 47.2504 27.7902C47.1304 27.7902 47.0004 27.7502 46.9104 27.6602C46.7004 27.4702 46.6904 27.1502 46.8804 26.9502L47.9104 25.8502C46.3804 23.1002 44.1404 18.9102 42.1204 14.7002C39.2204 8.64023 33.6504 8.74023 33.6504 8.74023C33.6504 8.74023 30.2304 8.85023 26.9304 8.78023C26.2804 8.76023 25.6204 8.74023 25.0004 8.71023C24.3504 8.68023 23.7404 8.63023 23.2004 8.58023C22.2904 8.48023 21.5704 8.36023 21.1804 8.18023C19.7604 7.54024 3.89038 5.24023 3.89038 5.24023V27.9902L5.12038 29.3502H5.13038C9.69038 29.1402 18.7404 35.9302 21.4504 38.0702C21.3004 37.5902 21.2004 37.0002 21.1904 36.3002C21.1904 36.0202 21.4104 35.8002 21.6904 35.8002C21.9704 35.8002 22.1904 36.0202 22.1904 36.3002C22.1904 36.7902 22.2504 37.2102 22.3404 37.5702C27.6804 42.5002 34.1204 38.9702 36.1004 37.6702C36.4704 36.3402 36.1004 35.1602 36.0904 35.1402V35.1002C36.0904 35.1002 36.0404 35.0202 36.0304 34.9702C35.9204 34.6402 34.6904 33.3702 33.9604 32.6102C33.5004 32.1302 33.0704 31.6902 32.7904 31.3702C31.9304 30.5302 31.9704 28.8602 32.0204 27.0902C32.0304 26.8002 32.0304 26.5202 32.0404 26.2302C32.0604 24.4102 29.7904 23.4602 29.7704 23.4502C29.5104 23.3502 29.3904 23.0602 29.4904 22.8002C29.6004 22.5502 29.8904 22.4202 30.1404 22.5302C30.2404 22.5702 32.1204 23.3502 32.8004 24.9902C33.4804 25.0902 34.6004 25.3302 35.1704 25.8302C35.5004 24.7502 35.2604 22.9602 35.1204 22.2602C35.0604 21.9902 35.2404 21.7202 35.5104 21.6702C35.7804 21.6102 36.0404 21.7802 36.1004 22.0602C36.1404 22.2602 36.3504 23.3402 36.3404 24.5002C36.5804 25.3502 36.7404 26.2502 36.5204 26.6602C36.0504 27.5502 38.4504 25.7002 38.4504 25.7002C38.4504 25.7002 38.4604 25.7202 38.5004 25.7602C39.0004 25.2302 39.3904 24.6602 39.5904 24.0802C39.6804 23.8202 39.9704 23.6802 40.2304 23.7702C40.4904 23.8602 40.6304 24.1402 40.5404 24.4002C40.2704 25.1802 39.7404 25.9102 39.0704 26.5902C39.9904 27.8202 41.7304 29.9702 43.1004 30.4102C43.3704 30.1602 43.6604 29.8502 43.9304 29.4602C44.0904 29.2302 44.4004 29.1802 44.6304 29.3402C44.8604 29.5002 44.9104 29.8102 44.7504 30.0402C44.6104 30.2402 44.4604 30.4302 44.3104 30.6002C44.5604 31.9202 45.3204 34.9102 47.4504 36.6402C47.7604 36.3702 48.0904 36.0202 48.4104 35.5702C48.5604 35.3502 48.8804 35.2902 49.1104 35.4502C49.3304 35.6102 49.3804 35.9202 49.2204 36.1402C49.1104 36.3002 49.0004 36.4402 48.8904 36.5802C48.9304 38.0602 49.6704 42.2002 55.8304 44.6202C56.0304 44.4302 56.2004 44.2302 56.3304 44.0102C55.9904 43.5802 53.9604 41.0302 53.6404 40.0002ZM56.5204 41.4302C56.2104 40.7802 55.6904 39.7602 55.0604 38.5602C54.8904 38.7202 54.5704 39.0802 54.5704 39.4902C54.5704 39.5602 54.5804 39.6302 54.6004 39.7102C54.7704 40.2702 55.8604 41.7802 56.7304 42.8902C56.8204 42.3002 56.7104 41.8302 56.5204 41.4302Z" fill="#FEC283"/>
<path d="M80.9004 36.5002V43.7402C80.9004 43.7402 76.6504 63.0702 73.9004 67.4102C71.1504 71.7402 50.4004 76.9902 50.4004 76.9902H38.9004V69.9902C38.9004 69.9902 40.1204 66.7402 44.1404 66.4902H47.6504V59.4902C47.6504 59.4902 48.8704 56.2402 52.8904 55.9902H56.4004V48.9902C56.4004 48.9902 57.6204 45.7402 61.6404 45.4902H65.1504V38.4902C65.1504 38.4902 66.3804 35.2402 70.4004 34.9902H79.3904C80.2204 34.9902 80.9004 35.6702 80.9004 36.5002Z" fill="#CFC3E2"/>
<path d="M67.7404 48.4098C68.3004 49.0298 68.6504 49.8398 68.6504 50.7398C68.6504 52.6698 67.0804 54.2398 65.1504 54.2398C64.4804 54.2398 63.8504 54.0398 63.3204 53.7098L58.9904 58.9098C59.5504 59.5298 59.9004 60.3398 59.9004 61.2398C59.9004 63.1698 58.3304 64.7398 56.4004 64.7398C55.7304 64.7398 55.1004 64.5398 54.5704 64.2098L50.2404 69.4098C50.8004 70.0298 51.1504 70.8398 51.1504 71.7398C51.1504 73.6698 49.5804 75.2398 47.6504 75.2398C45.7204 75.2398 44.1504 73.6698 44.1504 71.7398C44.1504 69.8098 45.7104 68.2398 47.6504 68.2398C48.3204 68.2398 48.9404 68.4398 49.4704 68.7698L53.8004 63.5698C53.2504 62.9498 52.9004 62.1398 52.9004 61.2398C52.9004 59.3098 54.4604 57.7398 56.4004 57.7398C57.0704 57.7398 57.6904 57.9398 58.2204 58.2698L62.5504 53.0698C62.0004 52.4498 61.6504 51.6398 61.6504 50.7398C61.6504 48.8098 63.2104 47.2398 65.1504 47.2398C65.8204 47.2398 66.4404 47.4398 66.9704 47.7698L71.3004 42.5698C71.5204 42.8298 71.7804 43.0498 72.0704 43.2198L67.7404 48.4098Z" fill="#164C9B"/>
<path d="M65.1504 52.4902C66.1164 52.4902 66.9004 51.7062 66.9004 50.7402C66.9004 49.7742 66.1164 48.9902 65.1504 48.9902C64.1844 48.9902 63.4004 49.7732 63.4004 50.7402C63.4004 51.7072 64.1844 52.4902 65.1504 52.4902Z" fill="#51CE84"/>
<path d="M73.9004 43.7402C75.8334 43.7402 77.4004 42.1732 77.4004 40.2402C77.4004 38.3072 75.8334 36.7402 73.9004 36.7402C71.9674 36.7402 70.4004 38.3072 70.4004 40.2402C70.4004 42.1732 71.9674 43.7402 73.9004 43.7402Z" fill="#2DB24F"/>
<path d="M80.9004 43.7402V62.9902C80.9004 62.9902 79.4004 72.9502 78.1104 73.8202C74.7704 76.0702 66.9004 76.9902 66.9004 76.9902H50.4004C50.4004 76.9902 71.1504 71.7402 73.9004 67.4102C76.6504 63.0702 80.9004 43.7402 80.9004 43.7402Z" fill="#AC93C6"/>
<path d="M73.3104 42.18H73.2804C73.1504 42.18 73.0204 42.11 72.9304 42.01L71.7504 40.66C71.5704 40.45 71.5904 40.14 71.8004 39.95C72.0104 39.77 72.3204 39.79 72.5104 40L73.3604 40.97L75.5004 39.04C75.7004 38.85 76.0204 38.87 76.2104 39.08C76.4004 39.29 76.3804 39.6 76.1704 39.79L73.6504 42.06C73.5604 42.14 73.4404 42.19 73.3204 42.19L73.3104 42.18Z" fill="#083001"/>
<path d="M31.9004 42.2099C32.3904 42.0899 32.8304 41.9499 33.2504 41.7899C33.0104 42.8599 32.9104 44.3899 32.8704 45.4899H31.9004V42.2099ZM42.8604 36.1299C42.9604 37.8899 42.9704 39.7499 42.7304 41.4099C42.5104 42.9399 42.2104 44.3199 41.8904 45.4899H45.3604C45.3604 45.4899 46.9004 45.0199 48.3904 43.3699C46.4904 41.3599 44.3404 38.3399 42.8604 36.1299ZM40.1304 45.4899C40.1104 45.5499 40.0904 45.6099 40.0804 45.6699C39.9704 46.0799 39.8604 46.4599 39.7504 46.8099C39.7004 46.9899 39.6404 47.1599 39.5904 47.3199C39.4304 47.8099 39.2804 48.2399 39.1504 48.5899C39.0704 48.7999 39.0004 48.9799 38.9404 49.1399C38.8604 49.3399 38.7904 49.5099 38.7404 49.6199C38.6704 49.7799 38.6304 49.8599 38.6304 49.8599C38.6304 49.8599 38.5304 50.3299 38.3304 51.0099C38.1104 51.8199 37.7404 52.9299 37.2404 53.8899C37.1704 54.0299 37.0904 54.1699 37.0104 54.2999C36.9104 54.4699 36.8104 54.6399 36.7004 54.7899C36.2304 55.4599 35.6704 55.9399 35.0304 55.9899C34.8004 56.0099 34.5604 56.0199 34.3304 56.0299C34.9404 56.0699 35.5904 56.0399 36.2104 55.9899C38.5604 55.8199 39.8104 49.8599 39.8104 49.8599C39.8104 49.8599 40.5904 48.2199 41.3004 45.4899H40.1304ZM45.3604 45.4899C45.3604 54.5399 38.9004 55.9899 38.9004 55.9899H56.4004V45.4899H45.3604Z" fill="#581E96"/>
<path d="M40.7104 40.01C40.8404 39.96 40.9704 39.94 41.1004 39.95C41.1404 39.39 41.1604 38.82 41.1604 38.25C41.1604 36.93 41.0804 35.6 40.9604 34.38C40.6004 34.24 40.1904 34.22 39.7804 34.3C38.7904 34.47 37.7704 35.12 37.1904 35.53C37.3204 36.36 37.3704 37.81 36.5304 39.22C36.2904 39.63 36.0004 40 35.6504 40.34C36.4704 40.52 37.7104 40.71 38.8904 40.45C39.1604 40.39 39.4204 40.56 39.4804 40.83C39.5404 41.1 39.3704 41.37 39.1004 41.42C38.6104 41.53 38.1004 41.58 37.6204 41.58C36.3104 41.58 35.1504 41.27 34.6404 41.1C34.5604 41.15 34.4804 41.21 34.4004 41.26C34.0404 42.31 33.1404 45.13 33.2804 46.4C34.1104 46.46 35.4304 46.79 36.5704 48.07C36.7504 48.28 36.7304 48.6 36.5204 48.78C36.4304 48.86 36.3104 48.91 36.1904 48.91C36.0504 48.91 35.9204 48.85 35.8204 48.74C34.8904 47.7 33.8304 47.45 33.1904 47.4C32.5404 48.86 30.8704 53.13 32.0904 55.85C32.9404 56.11 34.0304 56.06 35.0304 55.99C35.6704 55.94 36.2304 55.46 36.7004 54.79C36.8104 54.64 36.9104 54.47 37.0104 54.3C37.0904 54.17 37.1704 54.03 37.2404 53.89C37.7404 52.93 38.1104 51.82 38.3304 51.01C38.3104 50.96 38.2904 50.91 38.2804 50.86C38.2304 50.58 37.9504 50.22 37.7304 49.98L37.5304 49.78C37.3204 49.6 37.3004 49.28 37.4804 49.08C37.6604 48.87 37.9804 48.85 38.1904 49.03C38.2104 49.05 38.2704 49.1 38.3504 49.18C38.4504 49.28 38.6004 49.44 38.7404 49.62C38.7904 49.51 38.8604 49.34 38.9404 49.14C39.0004 48.98 39.0704 48.8 39.1504 48.59C39.2804 48.24 39.4304 47.81 39.5904 47.32C39.6404 47.16 39.7004 46.99 39.7504 46.81C39.8604 46.46 39.9704 46.08 40.0804 45.67C40.1304 45.47 40.1904 45.26 40.2404 45.05C40.2904 44.83 40.3504 44.61 40.4004 44.39C40.4904 44.02 40.5704 43.63 40.6504 43.23C40.7104 42.94 40.7604 42.65 40.8104 42.34C40.8704 42.04 40.9204 41.73 40.9604 41.41C40.9804 41.27 41.0004 41.12 41.0104 40.97C41.0004 40.97 41.0004 40.96 40.9904 40.96C40.9204 40.98 40.8304 41.04 40.7604 41.09C40.6904 41.14 40.6104 41.17 40.5304 41.18C40.5104 41.19 40.4804 41.19 40.4604 41.19C40.3104 41.19 40.1604 41.12 40.0604 40.99C39.8904 40.78 39.9304 40.46 40.1504 40.3C40.3204 40.17 40.5104 40.06 40.7104 40.01ZM15.0404 36.62C15.0404 36.62 17.2304 38.58 21.9104 39.11C21.7404 38.83 21.5804 38.49 21.4504 38.07C18.7404 35.93 9.69037 29.14 5.13037 29.35L5.48037 29.74C8.04037 34.25 12.1704 36.85 15.7904 38.33C14.8704 37.82 14.4104 37.4 14.3604 37.36C14.1604 37.17 14.1504 36.85 14.3404 36.65C14.5304 36.45 14.8404 36.44 15.0404 36.62ZM22.3404 37.57C22.6304 38.75 23.2604 39.23 23.3004 39.25C26.1504 41.02 29.8604 41.6 30.9604 41.39C32.2604 41.15 33.3304 40.76 34.1604 40.23C34.2204 40.15 34.3004 40.1 34.4004 40.07C34.9304 39.69 35.3604 39.24 35.6704 38.72C35.8804 38.37 36.0204 38.02 36.1004 37.67C34.1204 38.97 27.6804 42.5 22.3404 37.57ZM38.4504 25.7C38.4504 25.7 36.0504 27.55 36.5204 26.66C36.7404 26.25 36.5804 25.35 36.3404 24.5C36.3304 25.39 36.1904 26.33 35.7404 26.95C35.6404 27.09 35.4904 27.16 35.3404 27.16C35.2304 27.16 35.1304 27.13 35.0404 27.06C34.8204 26.9 34.7704 26.59 34.9304 26.36C35.0304 26.22 35.1104 26.04 35.1704 25.83C34.6004 25.33 33.4804 25.09 32.8004 24.99C32.9504 25.37 33.0504 25.78 33.0404 26.25C33.0304 26.53 33.0304 26.83 33.0204 27.12C33.0004 27.92 32.9804 28.72 33.0604 29.39C34.1504 28.88 36.8904 27.49 38.5004 25.76C38.4604 25.72 38.4504 25.7 38.4504 25.7ZM39.0704 26.59C38.6004 27.08 38.0404 27.54 37.4704 27.97C37.6204 27.96 37.7404 27.96 37.8204 27.99C37.8404 28 37.8604 28.01 37.8904 28.02H37.9004C37.9004 28.02 37.9604 28.06 37.9904 28.08C37.9904 28.09 38.0104 28.09 38.0204 28.1C38.0504 28.13 38.0904 28.15 38.1304 28.18C38.1404 28.19 38.1604 28.21 38.1804 28.22C38.6004 28.56 39.2804 29.23 39.9904 29.98C40.1304 30.12 40.2804 30.27 40.4104 30.42C40.7304 30.75 41.0504 31.1 41.3604 31.42C41.3904 31.4 41.4104 31.39 41.4404 31.39C41.4904 31.38 42.2404 31.21 43.1004 30.41C41.7304 29.97 39.9904 27.82 39.0704 26.59ZM44.3104 30.6C43.4704 31.58 42.6004 32.03 42.0904 32.23C42.6704 32.87 43.0704 33.32 43.0704 33.32C43.0704 33.32 44.2404 35.23 45.8304 37.53C45.8604 37.51 45.8804 37.5 45.9104 37.5C45.9504 37.49 46.6404 37.34 47.4504 36.64C45.3204 34.91 44.5604 31.92 44.3104 30.6ZM48.8904 36.58C47.9404 37.74 46.9404 38.21 46.4404 38.39C48.8104 41.71 51.8204 45.45 53.4404 45.47C54.5104 45.49 55.3004 45.12 55.8304 44.62C49.6704 42.2 48.9304 38.06 48.8904 36.58Z" fill="#F5A56F"/>
<path d="M10.9004 66.4902C10.9004 66.4902 6.83039 69.4802 5.65039 73.4902V68.0002C5.65039 67.1702 6.33039 66.4902 7.16039 66.4902H10.9004Z" fill="#F4BAEB"/>
<path d="M23.2004 8.57023C22.4304 10.1802 16.5804 8.79023 14.8204 8.24023C12.3504 7.47023 3.89038 6.53023 3.89038 6.53023V5.24023C3.89038 5.24023 19.7604 7.54024 21.1804 8.18023C21.5704 8.36023 22.2904 8.48023 23.2004 8.57023ZM26.9304 8.78023C26.2804 8.76023 25.6204 8.74023 25.0004 8.71023C24.9804 8.76023 24.9804 8.82023 24.9804 8.87023C24.9804 9.41023 25.4204 9.85023 25.9604 9.85023C26.5004 9.85023 26.9404 9.41023 26.9404 8.87023V8.78023H26.9304Z" fill="#FDE9BF"/>
<path d="M37.9004 28.02C37.9004 28.02 37.9604 28.06 37.9904 28.08C37.9504 28.06 37.9204 28.04 37.9004 28.02Z" fill="#E08149"/>
<path d="M65.6204 19.5602C65.2804 21.1402 61.2704 21.8002 61.2704 21.8002V17.4902L64.1904 18.8802L65.6204 19.5602Z" fill="#FCD222"/>
<path d="M35.0404 27.0601C34.8204 26.9001 34.7704 26.5901 34.9304 26.3601C35.5904 25.4501 35.2904 23.0901 35.1204 22.2501C35.0604 21.9801 35.2404 21.7201 35.5104 21.6601C35.7804 21.6101 36.0404 21.7801 36.1004 22.0501C36.1704 22.4001 36.7804 25.5201 35.7404 26.9401C35.6404 27.0701 35.4904 27.1501 35.3304 27.1501C35.2304 27.1501 35.1204 27.1201 35.0404 27.0501V27.0601ZM43.9304 29.4601C42.7904 31.0801 41.5104 31.3801 41.4404 31.3901C41.4104 31.3901 41.3904 31.4001 41.3604 31.4201C41.6204 31.7101 41.8704 31.9801 42.0904 32.2301C42.6904 32.0001 43.7804 31.4101 44.7504 30.0401C44.9104 29.8101 44.8604 29.5001 44.6304 29.3401C44.4004 29.1801 44.0904 29.2301 43.9304 29.4601ZM48.4104 35.5701C48.0904 36.0201 47.7604 36.3701 47.4504 36.6401C46.6404 37.3401 45.9504 37.4901 45.9104 37.5001C45.8804 37.5001 45.8604 37.5101 45.8304 37.5301C46.0304 37.8101 46.2404 38.1001 46.4404 38.3901C46.9404 38.2101 47.9404 37.7401 48.8904 36.5801C49.0004 36.4401 49.1104 36.3001 49.2204 36.1401C49.3804 35.9201 49.3304 35.6101 49.1104 35.4501C48.8804 35.2901 48.5604 35.3501 48.4104 35.5701ZM38.8904 40.4501C37.7204 40.7101 36.4704 40.5301 35.6504 40.3401C36.0004 40.0001 36.3004 39.6301 36.5404 39.2301C37.3804 37.8201 37.3304 36.3701 37.2004 35.5401C38.0204 34.9501 39.7404 33.9001 40.9704 34.3901C40.8004 32.7701 40.5804 31.3501 40.4204 30.4301C39.3004 29.2401 38.1804 28.1201 37.8304 28.0001C37.7504 27.9701 37.6204 27.9701 37.4704 27.9801C38.8304 26.9801 40.0904 25.7601 40.5504 24.4101C40.6404 24.1501 40.5004 23.8601 40.2404 23.7701C39.9804 23.6801 39.7004 23.8201 39.6104 24.0801C38.7604 26.5401 34.5104 28.7201 33.0704 29.3901C32.9904 28.7201 33.0104 27.9101 33.0304 27.1201C33.0304 26.8301 33.0504 26.5401 33.0504 26.2501C33.0804 23.7401 30.2704 22.5801 30.1504 22.5301C29.8904 22.4301 29.6004 22.5501 29.5004 22.8101C29.4004 23.0701 29.5204 23.3601 29.7704 23.4601C29.7904 23.4601 32.0604 24.4201 32.0404 26.2401C32.0404 26.5201 32.0304 26.8101 32.0204 27.0901C31.9704 28.8601 31.9304 30.5301 32.7904 31.3701C33.0704 31.6901 33.5004 32.1401 33.9604 32.6101C34.6904 33.3701 35.9204 34.6401 36.0304 34.9801C36.0404 35.0301 36.0604 35.0701 36.0904 35.1101V35.1501C36.0904 35.1701 36.6804 37.0401 35.6704 38.7301C35.3604 39.2501 34.9304 39.7001 34.4004 40.0801C34.3104 40.1101 34.2204 40.1601 34.1604 40.2301C33.3304 40.7601 32.2704 41.1601 30.9704 41.4001C29.8704 41.6101 26.1604 41.0201 23.3104 39.2501C23.2704 39.2201 22.2104 38.4401 22.2004 36.3001C22.2004 36.0301 21.9804 35.8001 21.7004 35.8001C21.4204 35.8001 21.2004 36.0301 21.2004 36.3001C21.2004 37.6001 21.5504 38.5101 21.9204 39.1101C17.2404 38.5701 15.0804 36.6401 15.0604 36.6201C14.8604 36.4301 14.5404 36.4501 14.3504 36.6501C14.1604 36.8501 14.1804 37.1701 14.3804 37.3501C14.4904 37.4501 17.1304 39.8501 22.9704 40.2001H23.0004C25.5004 41.6801 28.7004 42.4201 30.4504 42.4201C30.7204 42.4201 30.9604 42.4001 31.1604 42.3701C31.9404 42.2301 32.6404 42.0301 33.2704 41.7801C32.8604 43.6501 32.8604 46.8601 32.8604 46.8601L32.8204 46.9201L32.7904 46.9601C32.7604 47.0101 32.7204 47.0701 32.6604 47.1601C32.6304 47.2101 32.6004 47.2701 32.5704 47.3301C32.5604 47.3501 32.5504 47.3701 32.5304 47.4001C32.0904 48.1801 31.2804 49.8401 30.7004 52.4401C30.2304 54.5301 30.9004 55.4401 32.0004 55.8101L32.1104 55.8401C30.8904 53.1201 32.5604 48.8501 33.2104 47.3901C33.8504 47.4401 34.9104 47.6901 35.8404 48.7301C35.9404 48.8401 36.0704 48.9001 36.2104 48.9001C36.3304 48.9001 36.4504 48.8501 36.5404 48.7701C36.7504 48.5901 36.7704 48.2701 36.5904 48.0601C35.4504 46.7801 34.1304 46.4501 33.3004 46.3901C33.1604 45.1201 34.0604 42.3001 34.4204 41.2501C34.5004 41.2001 34.5804 41.1501 34.6604 41.1001C35.1704 41.2601 36.3304 41.5701 37.6404 41.5701C38.1204 41.5701 38.6304 41.5301 39.1204 41.4201C39.3904 41.3601 39.5604 41.0901 39.5004 40.8201C39.4404 40.5501 39.1804 40.3801 38.9004 40.4401L38.8904 40.4501ZM38.1904 49.0301C37.9804 48.8501 37.6604 48.8701 37.4804 49.0801C37.3004 49.2801 37.3204 49.6001 37.5304 49.7801C37.7404 49.9701 38.2104 50.4801 38.2804 50.8601C38.2904 50.9101 38.3104 50.9601 38.3304 51.0101C38.5304 50.3301 38.6304 49.8601 38.6304 49.8601C38.6304 49.8601 38.6704 49.7801 38.7404 49.6201C38.4904 49.3001 38.2404 49.0701 38.1904 49.0301ZM54.6004 39.7101C54.5804 39.6301 54.5704 39.5601 54.5704 39.4901C54.5704 39.0801 54.8904 38.7201 55.0604 38.5601C54.9104 38.2801 54.7504 37.9801 54.5904 37.6701H54.5804C54.5204 37.7101 53.2404 38.6701 53.6404 40.0001C53.9604 41.0301 55.9904 43.5801 56.3304 44.0101C56.4504 43.8101 56.5504 43.6101 56.6104 43.4101C56.6704 43.2301 56.7104 43.0601 56.7304 42.8901C55.8604 41.7801 54.7704 40.2701 54.6004 39.7101ZM40.0604 40.9901C40.1604 41.1201 40.3104 41.1901 40.4604 41.1901C40.5604 41.1901 40.6704 41.1601 40.7604 41.0901C40.8304 41.0401 40.9204 40.9801 40.9904 40.9601C40.9904 40.9601 40.9904 40.9701 41.0104 40.9701C41.0504 40.6401 41.0804 40.3001 41.1004 39.9501C40.7804 39.9301 40.4304 40.0801 40.1504 40.3001C39.9304 40.4601 39.8904 40.7801 40.0604 40.9901ZM47.2504 27.7901C47.3804 27.7901 47.5104 27.7401 47.6104 27.6301L48.4304 26.7601C48.2804 26.4901 48.1204 26.2101 47.9404 25.9001C47.9404 25.8801 47.9204 25.8701 47.9104 25.8501L46.8804 26.9501C46.6904 27.1501 46.7004 27.4701 46.9104 27.6601C47.0004 27.7501 47.1304 27.7901 47.2504 27.7901ZM50.9504 32.5201C50.7604 32.7201 50.7804 33.0401 50.9804 33.2301C51.0704 33.3201 51.2004 33.3601 51.3204 33.3601C51.4504 33.3601 51.5904 33.3101 51.6804 33.2001L51.9904 32.8701C51.8104 32.5601 51.6404 32.2501 51.4704 31.9601L50.9504 32.5201Z" fill="#E08149"/>
<path d="M53.1504 34.99C52.7604 34.27 52.3604 33.55 51.9904 32.87C51.8104 32.56 51.6404 32.25 51.4704 31.96L53.1204 34.99L54.5804 37.67H54.5904C54.1304 36.81 53.6404 35.89 53.1504 34.99Z" fill="#FEC283"/>
<path d="M32.7604 55.99C33.4704 56.08 34.2804 56.04 35.0304 55.99H32.7604ZM53.1504 34.99C52.7604 34.27 52.3604 33.55 51.9904 32.87C51.8104 32.56 51.6404 32.25 51.4704 31.96L53.1204 34.99L54.5804 37.67H54.5904C54.1304 36.81 53.6404 35.89 53.1504 34.99Z" fill="#FEC283"/>
<path d="M51.9904 32.87C51.8104 32.56 51.6404 32.25 51.4704 31.96L54.5804 37.67H54.5904C53.7704 36.12 52.8304 34.4 51.9904 32.87Z" fill="#FEC283"/>
<path d="M65.1504 34.9902V45.4902H45.3604C45.3604 45.4902 46.9004 45.0202 48.3904 43.3702C46.4904 41.3602 44.3404 38.3402 42.8604 36.1302C42.9604 37.8902 42.9704 39.7502 42.7304 41.4102C42.5104 42.9402 42.2104 44.3202 41.8904 45.4902H40.1304C40.1604 45.3502 40.2004 45.2002 40.2404 45.0502C40.2904 44.8302 40.3504 44.6102 40.4004 44.3902C40.4904 44.0202 40.5704 43.6302 40.6504 43.2302C40.7104 42.9402 40.7604 42.6502 40.8104 42.3402C40.8704 42.0402 40.9204 41.7302 40.9604 41.4102C40.9804 41.2702 41.0004 41.1202 41.0104 40.9702C41.0504 40.6402 41.0804 40.3002 41.1004 39.9502C41.1404 39.3902 41.1604 38.8202 41.1604 38.2502C41.1604 37.1502 41.1004 36.0402 41.0104 34.9902H44.1304C44.5904 35.7002 45.1804 36.5802 45.8304 37.5302C46.0304 37.8102 46.2404 38.1002 46.4404 38.3902C48.8104 41.7102 51.8204 45.4502 53.4404 45.4702C54.5104 45.4902 55.3004 45.1202 55.8304 44.6202C56.0304 44.4302 56.2004 44.2302 56.3304 44.0102C56.4504 43.8102 56.5504 43.6102 56.6104 43.4102C56.6704 43.2302 56.7104 43.0602 56.7304 42.8902C56.8204 42.3002 56.7104 41.8302 56.5204 41.4302C56.2104 40.7802 55.6904 39.7602 55.0604 38.5602C54.9104 38.2802 54.7504 37.9802 54.5904 37.6702H54.5804L53.1204 34.9902H65.1504Z" fill="#240872"/>
<path d="M35.0304 55.9902C34.8004 56.0102 34.5604 56.0202 34.3304 56.0302C34.9404 56.0702 35.5904 56.0402 36.2104 55.9902H35.0304Z" fill="#164C9B"/>
<path d="M38.9004 55.9902C38.9004 64.2802 32.7704 66.4902 32.7704 66.4902H14.4004V62.9902C15.5804 58.9802 19.6504 55.9902 19.6504 55.9902H38.9004ZM32.7704 66.4902C32.7704 74.7802 26.6504 76.9902 26.6504 76.9902H38.9004V66.4902H32.7704ZM24.6604 45.4902C23.8304 45.4902 23.1504 46.1702 23.1504 47.0002V52.4902C24.3304 48.4802 28.4004 45.4902 28.4004 45.4902H24.6604Z" fill="#AE53C4"/>
<path d="M47.6504 55.9902V66.4902H32.7704C32.7704 66.4902 38.9004 64.2802 38.9004 55.9902H47.6504ZM28.4004 45.4902C28.4004 45.4902 24.3304 48.4802 23.1504 52.4902V55.9902H32.7604C32.5304 55.9602 32.3004 55.9102 32.0904 55.8502L31.9804 55.8202C30.8804 55.4502 30.2104 54.5402 30.6804 52.4502C30.9704 51.1502 31.3204 50.0802 31.6504 49.2502C31.9804 48.4102 32.2904 47.8002 32.5104 47.4102C32.5204 47.3802 32.5404 47.3702 32.5504 47.3402C32.5804 47.2802 32.6204 47.2202 32.6404 47.1802C32.7004 47.0902 32.7404 47.0202 32.7704 46.9702C32.7904 46.9502 32.7904 46.9402 32.8004 46.9302C32.8204 46.8902 32.8404 46.8702 32.8404 46.8702C32.8404 46.8702 32.8404 46.2902 32.8704 45.4902H28.4004ZM41.3004 45.4902C40.5904 48.2202 39.8104 49.8602 39.8104 49.8602C39.8104 49.8602 38.5604 55.8202 36.2104 55.9902H38.9004C38.9004 55.9902 45.3604 54.5402 45.3604 45.4902H41.3004Z" fill="#8131AA"/>
<path d="M67.8364 20.6061C68.1614 20.7591 68.1624 21.2221 67.8364 21.3761L64.0794 23.1601H64.0594C62.9294 23.6901 61.2694 22.5801 61.2694 22.5801V21.8001C61.2694 21.8001 65.2794 21.1401 65.6194 19.5601L67.8364 20.6061Z" fill="#EFB003"/>
<path d="M64.0604 23.1701L61.2704 24.4901V22.5801C61.2704 22.5801 62.9304 23.6901 64.0604 23.1701Z" fill="#D87E00"/>
<path d="M80.9004 62.9902C80.9004 62.9902 79.4004 72.9502 78.1104 73.8202C74.7804 76.0702 66.9004 76.9902 66.9004 76.9902H79.3704C80.2104 76.9902 80.9004 76.3102 80.9004 75.4602V62.9902Z" fill="#746199"/>
<path d="M38.9004 66.4902H44.1404C40.1204 66.7402 38.9004 69.9902 38.9004 69.9902V66.4902ZM47.6504 59.4902C47.6504 59.4902 48.8704 56.2402 52.8904 55.9902H47.6504V59.4902ZM56.4004 48.9902C56.4004 48.9902 57.6204 45.7402 61.6404 45.4902H56.4004V48.9902ZM65.1604 38.4902C65.1604 38.4902 66.3804 35.2402 70.4004 34.9902H65.1604V38.4902Z" fill="#EEE6F4"/>
<path d="M32.7704 66.4902C32.7704 74.7802 26.6504 76.9902 26.6504 76.9902H5.65039V73.4902C6.83039 69.4802 10.9004 66.4902 10.9004 66.4902H32.7704ZM15.9104 55.9902C15.0804 55.9902 14.4004 56.6702 14.4004 57.5002V62.9902C15.5804 58.9802 19.6504 55.9902 19.6504 55.9902H15.9104Z" fill="#D36AE5"/>
<path d="M47.6504 73.4902C48.6169 73.4902 49.4004 72.7067 49.4004 71.7402C49.4004 70.7737 48.6169 69.9902 47.6504 69.9902C46.6839 69.9902 45.9004 70.7737 45.9004 71.7402C45.9004 72.7067 46.6839 73.4902 47.6504 73.4902Z" fill="#51CE84"/>
<path d="M56.4004 62.9902C57.3669 62.9902 58.1504 62.2067 58.1504 61.2402C58.1504 60.2737 57.3669 59.4902 56.4004 59.4902C55.4339 59.4902 54.6504 60.2737 54.6504 61.2402C54.6504 62.2067 55.4339 62.9902 56.4004 62.9902Z" fill="#51CE84"/>
<path d="M66.4004 58.9048H75.8274C76.1434 58.9048 76.4004 59.1618 76.4004 59.4778V72.9168C76.4004 73.2328 76.1434 73.4898 75.8274 73.4898H66.4004V58.9048Z" fill="#8131AA"/>
<path d="M64.9734 58.9048H66.3804V73.4898H64.9734C64.6574 73.4898 64.4004 73.2328 64.4004 72.9168V59.4778C64.4004 59.1618 64.6574 58.9048 64.9734 58.9048Z" fill="#581E96"/>
<path d="M71.1784 63.1482L68.2604 65.2682C68.1274 65.3642 68.0724 65.5352 68.1234 65.6912L69.2374 69.1212C69.2884 69.2772 69.4334 69.3822 69.5974 69.3822H73.2034C73.3674 69.3822 73.5124 69.2772 73.5634 69.1212L74.6774 65.6912C74.7284 65.5352 74.6724 65.3652 74.5404 65.2682L71.6224 63.1482C71.4894 63.0522 71.3104 63.0522 71.1784 63.1482Z" fill="#D36AE5"/>
<path d="M71.1784 64.2678L69.3264 65.6138C69.1934 65.7098 69.1384 65.8808 69.1894 66.0368L69.8974 68.2138C69.9484 68.3698 70.0934 68.4748 70.2574 68.4748H72.5474C72.7114 68.4748 72.8564 68.3698 72.9074 68.2138L73.6154 66.0368C73.6664 65.8808 73.6104 65.7108 73.4784 65.6138L71.6264 64.2678C71.4934 64.1718 71.3144 64.1718 71.1824 64.2678H71.1784Z" fill="#AE53C4"/>
<path d="M74.4034 70.4858H68.4344C68.325 70.4858 68.2364 70.5745 68.2364 70.6838V71.0858C68.2364 71.1952 68.325 71.2838 68.4344 71.2838H74.4034C74.5127 71.2838 74.6014 71.1952 74.6014 71.0858V70.6838C74.6014 70.5745 74.5127 70.4858 74.4034 70.4858Z" fill="#EEE6F4"/>
<path d="M60.6104 31.9302H60.8904C60.8904 31.9302 60.8104 31.9602 60.7704 31.9602C60.7104 31.9602 60.6604 31.9602 60.6104 31.9302Z" fill="#70B6DB"/>
<path d="M61.3004 31.49H61.2604C61.2604 31.49 61.2704 31.47 61.2704 31.46L61.3004 31.49Z" fill="#70B6DB"/>
<path d="M60.9204 22.0201C60.9204 22.0201 61.0704 23.7801 60.8604 31.3101C60.8504 31.4801 60.6004 31.9301 60.6004 31.9301H60.8904C61.1104 31.8901 61.2704 31.7001 61.2704 31.4601V21.8101L60.9204 22.0201Z" fill="#6D91AB"/>
<path d="M65.1204 34.9502L64.7104 34.5802L62.9004 32.9402L62.8704 32.9102C62.8504 33.3102 62.7604 34.7902 62.2704 34.9902H65.1604L65.1204 34.9502Z" fill="#6D91AB"/>
<path d="M61.3004 31.49L61.2704 31.46C61.2704 31.46 61.2704 31.48 61.2604 31.49C61.2604 31.72 61.1004 31.89 60.8904 31.94C60.8504 31.96 60.8104 31.96 60.7704 31.96C60.7104 31.96 60.6604 31.96 60.6104 31.93H60.6004C60.6004 31.93 60.8604 34.55 59.0204 34.99H62.2704C62.7604 34.79 62.8504 33.31 62.8704 32.91L61.3004 31.49Z" fill="#80B8BF"/>
<path d="M61.2704 17.4902H60.2704V31.4602C60.2704 31.6802 60.4104 31.8602 60.6004 31.9302C60.6004 31.9302 60.8504 31.4802 60.8604 31.3102C61.0704 23.7802 60.9204 22.0202 60.9204 22.0202L61.2704 21.8102V17.4902Z" fill="#80B8BF"/>
<path d="M60.6004 31.9302C60.4204 31.8602 60.2804 31.7002 60.2704 31.4902H60.2304L56.4104 34.9902H59.0204C60.8604 34.5502 60.6004 31.9302 60.6004 31.9302Z" fill="#BADEE2"/>
<path d="M66.3114 14.655V11.465C66.3314 10.595 66.9514 9.89502 67.7314 9.89502C68.5114 9.89502 69.1514 10.605 69.1514 11.465V14.635C69.1314 15.505 68.5014 16.205 67.7314 16.205C67.3514 16.205 67.0214 16.045 66.7714 15.795C66.4914 15.515 66.3214 15.095 66.3214 14.645L66.3114 14.655ZM73.4914 22.165H76.5814C77.4314 22.185 78.1114 22.825 78.1114 23.625C78.1114 24.425 77.4114 25.085 76.5814 25.085H73.4914C72.6414 25.065 71.9614 24.425 71.9614 23.625C71.9614 23.235 72.1114 22.885 72.3614 22.635C72.6214 22.335 73.0414 22.165 73.4714 22.165H73.4914ZM70.6314 17.385L76.4414 11.395C77.0514 10.795 77.9714 10.755 78.5214 11.315C79.0614 11.885 79.0214 12.855 78.4414 13.455L72.6314 19.445C72.0214 20.055 71.1014 20.085 70.5514 19.525C70.2814 19.255 70.1514 18.945 70.1514 18.535C70.1514 18.125 70.3214 17.695 70.6214 17.385H70.6314Z" fill="#EFB003"/>
</svg>
