<svg width="85" height="85" viewBox="0 0 85 85" fill="none" xmlns="http://www.w3.org/2000/svg">
<path d="M81.88 50.99C81.88 66.18 69.57 78.5 54.37 78.5C47.43 78.5 41.08 75.92 36.23 71.67C37.29 72.3 38.39 72.85 39.53 73.31C39.94 73.48 40.35 73.64 40.77 73.79C40.37 73.66 39.97 73.51 39.58 73.34C43.55 75.58 48.13 76.85 53.01 76.85C68.2 76.85 80.52 64.54 80.52 49.34C80.52 43.13 78.46 37.39 74.99 32.79C79.28 37.64 81.88 44.01 81.88 50.99Z" fill="#E3E3E3"/>
<path d="M39.53 73.31C39.94 73.48 40.35 73.64 40.77 73.79C40.37 73.66 39.97 73.51 39.58 73.34C39.56 73.34 39.54 73.33 39.53 73.31Z" fill="#A9CED4"/>
<path d="M39.53 73.31C39.94 73.48 40.35 73.64 40.77 73.79C40.37 73.66 39.97 73.51 39.58 73.34C39.56 73.34 39.54 73.33 39.53 73.31Z" fill="#D4E8EB"/>
<path d="M27.08 62.94C27.33 63.33 27.59 63.71 27.86 64.08C26.54 63.68 25.28 63.16 24.06 62.56L24 62.53C22.4 61.73 20.89 60.79 19.48 59.71C21.8 61.14 24.36 62.25 27.08 62.94Z" fill="#E3E3E3"/>
<path d="M58.43 21.7C57.95 21.55 57.47 21.41 56.98 21.29C55.3 18.69 53.18 16.4 50.74 14.52C53.75 16.4 56.36 18.84 58.43 21.7Z" fill="#E3E3E3"/>
<path d="M18.91 59.38L18.61 60.88C18.47 61.63 17.58 61.98 17.02 61.51L16.41 61.01L15.37 60.14C15.27 60.06 15.16 60.01 15.05 59.98C15.01 59.96 14.98 59.96 14.94 59.96C14.85 59.95 14.77 59.95 14.68 59.95H14.61C14.37 59.99 14.13 60.13 13.96 60.35L13.87 60.48L13.38 61.15L13.33 61.21L11.76 63.34C11.76 63.34 11.72 63.39 11.66 63.47L9.59 66.26C9.25 66.72 8.61 66.82 8.19 66.47L7.75 66.1L6.59 65.14C6.17 64.8 6.15 64.15 6.55 63.72L12.28 57.57L10.83 56.37L10.81 56.35L9.87 55.56C9.3 55.1 9.49 54.16 10.19 53.88L11.02 53.55C11.04 53.58 11.06 53.6 11.09 53.63C13.32 55.95 15.93 57.9 18.85 59.35L18.91 59.38Z" fill="#E3E3E3"/>
<path d="M80.53 49.34C80.53 64.53 68.22 76.85 53.02 76.85C48.12 76.85 43.52 75.57 39.54 73.31C42.8 74.68 46.37 75.43 50.11 75.43C65.3 75.43 77.62 63.12 77.62 47.92C77.62 37.62 71.97 28.64 63.58 23.93C73.52 28.07 80.53 37.89 80.53 49.34Z" fill="#A9CED4"/>
<path d="M77.62 47.92C77.62 63.11 65.31 75.43 50.11 75.43C42.27 75.43 35.19 72.15 30.18 66.88C29.35 66.01 28.59 65.09 27.89 64.12C27.88 64.11 27.87 64.09 27.86 64.08C27.59 63.71 27.33 63.33 27.08 62.95C29.27 63.5 31.56 63.8 33.92 63.8C35.96 63.8 37.96 63.58 39.87 63.14C40.28 63.42 40.72 63.69 41.15 63.93C41.6 64.18 42.06 64.42 42.53 64.63C44.83 65.68 47.4 66.27 50.1 66.27C57.34 66.27 63.59 62.07 66.58 55.97C67.76 53.55 68.43 50.81 68.43 47.93L68.44 47.94C68.44 43.14 66.6 38.76 63.56 35.49C62.88 34.75 62.13 34.06 61.32 33.44C61.3 33.42 61.28 33.41 61.26 33.4C60.81 28.97 59.29 24.86 56.98 21.31C57.46 21.43 57.94 21.57 58.42 21.72C69.56 25.23 77.62 35.63 77.62 47.92Z" fill="#D4E8EB"/>
<path d="M26.36 61.79C26.59 62.18 26.83 62.57 27.08 62.95C24.25 62.21 21.6 61.05 19.2 59.52C21.43 60.59 23.84 61.37 26.36 61.79Z" fill="#071A8C"/>
<path d="M56.99 21.29C56.77 21.23 56.54 21.17 56.31 21.12C55.8 21 55.29 20.9 54.77 20.81C54.47 20.29 54.16 19.79 53.82 19.29C53.33 18.56 52.8 17.85 52.24 17.17C51.68 16.49 51.08 15.84 50.46 15.22C49.02 13.78 47.43 12.51 45.71 11.43C50.32 13.62 54.22 17.04 56.99 21.29Z" fill="#071A8C"/>
<path d="M41.16 63.93C41.6 64.17 42.05 64.41 42.51 64.61C40.48 65.11 38.35 65.36 36.17 65.36C33.28 65.36 30.48 64.91 27.86 64.08C27.59 63.71 27.32 63.33 27.07 62.94C29.26 63.5 31.56 63.8 33.93 63.8C35.97 63.8 37.97 63.58 39.88 63.14C40.28 63.42 40.72 63.69 41.16 63.93Z" fill="#A9CED4"/>
<path d="M63.57 35.48C62.89 34.74 62.14 34.05 61.33 33.43C61.31 33.41 61.29 33.4 61.27 33.39C60.81 28.96 59.3 24.85 56.99 21.31C57.47 21.43 57.95 21.56 58.42 21.71C61.28 25.65 63.13 30.36 63.57 35.48Z" fill="#A9CED4"/>
<path d="M68.44 47.92C68.44 50.8 67.77 53.54 66.59 55.96C63.6 62.06 57.35 66.26 50.11 66.26C47.41 66.26 44.84 65.67 42.54 64.62C42.07 64.41 41.61 64.17 41.16 63.92C40.69 63.66 40.22 63.36 39.77 63.06C34.95 59.76 31.79 54.21 31.79 47.93C31.79 37.81 40 29.59 50.13 29.59C54.35 29.59 58.25 31.01 61.34 33.42C62.15 34.04 62.9 34.73 63.58 35.47C66.62 38.74 68.46 43.12 68.46 47.92H68.44Z" fill="#A9CED4"/>
<path d="M61.43 36.29C61.43 51.48 49.12 63.8 33.92 63.8C28.51 63.8 23.46 62.23 19.2 59.52C21.9 60.82 24.86 61.68 27.97 62.02L27.96 62.03C28.96 62.16 29.97 62.21 31 62.21C37.17 62.21 42.87 60.18 47.46 56.74C47.46 56.73 47.46 56.73 47.47 56.73C48.52 55.94 49.52 55.08 50.45 54.15C52.32 52.28 53.92 50.14 55.19 47.8C56.04 46.24 56.73 44.6 57.27 42.88C58.08 40.29 58.51 37.54 58.51 34.69C58.51 28.99 56.78 23.7 53.81 19.31C53.32 18.58 52.79 17.87 52.23 17.19C51.67 16.51 51.07 15.86 50.45 15.24C49.01 13.8 47.42 12.53 45.7 11.45C55.01 15.84 61.43 25.32 61.43 36.29Z" fill="#071A8C"/>
<path d="M48.3 62.19H48.96C46.95 63.25 44.8 64.08 42.53 64.62C42.06 64.41 41.6 64.17 41.15 63.92C40.72 63.68 40.3 63.42 39.89 63.14C42.59 62.54 47.03 60.48 46.81 60.6V60.69C46.81 61.52 47.48 62.19 48.3 62.19Z" fill="#6D91AB"/>
<path d="M59.34 52.65C58.02 54.73 56.42 56.61 54.6 58.25V54.42C55.11 53.85 55.58 53.26 56.04 52.65H59.34Z" fill="#6D91AB"/>
<path d="M63.68 37.85C63.67 40.25 63.36 42.58 62.78 44.8L62.77 44.79C62.69 44.77 62.6 44.76 62.52 44.76H60.1C60.96 42.09 61.43 39.25 61.43 36.29C61.43 35.31 61.38 34.34 61.27 33.39C61.29 33.39 61.3 33.41 61.32 33.42C62.13 34.04 62.88 34.73 63.56 35.47C63.64 36.26 63.68 37.05 63.68 37.85Z" fill="#6D91AB"/>
<path d="M49 62.19C51.04 61.11 52.92 59.79 54.61 58.26V60.69C54.61 61.52 53.95 62.19 53.12 62.19H49Z" fill="#D4E8EB"/>
<path d="M64.02 46.26V51.14C64.02 51.96 63.36 52.64 62.53 52.64H59.35C60.89 50.25 62.05 47.61 62.79 44.79C63.49 44.92 64.02 45.52 64.02 46.26Z" fill="#D4E8EB"/>
<path d="M54.6 54.42V58.25C52.9 59.78 51.03 61.11 48.98 62.18H48.3C47.48 62.18 46.81 61.51 46.81 60.68V60.6C49.78 59.02 52.42 56.92 54.6 54.42Z" fill="#A9CED4"/>
<path d="M62.78 44.8C62.05 47.62 60.88 50.26 59.35 52.65H56.04C57.79 50.28 59.18 47.63 60.09 44.76H62.52C62.6 44.76 62.69 44.77 62.77 44.79L62.78 44.8Z" fill="#A9CED4"/>
<path d="M31.65 58.84C30.96 59.53 30.24 60.18 29.5 60.8C30.24 60.19 30.96 59.52 31.65 58.84Z" fill="#071A8C"/>
<path d="M61.43 36.29C61.43 51.48 49.12 63.8 33.92 63.8C28.51 63.8 23.46 62.23 19.2 59.52C21.9 60.82 24.86 61.68 27.97 62.02L27.96 62.03C28.96 62.16 29.97 62.21 31 62.21C37.17 62.21 42.87 60.18 47.46 56.74C47.46 56.73 47.46 56.73 47.47 56.73C48.52 55.94 49.52 55.08 50.45 54.15C52.32 52.28 53.92 50.14 55.19 47.8C56.04 46.24 56.73 44.6 57.27 42.88C58.08 40.29 58.51 37.54 58.51 34.69C58.51 28.99 56.78 23.7 53.81 19.31C53.32 18.58 52.79 17.87 52.23 17.19C51.67 16.51 51.07 15.86 50.45 15.24C49.01 13.8 47.42 12.53 45.7 11.45C55.01 15.84 61.43 25.32 61.43 36.29Z" fill="#071A8C"/>
<path d="M47.48 56.72C48.53 55.93 49.53 55.07 50.46 54.14C49.53 55.07 48.54 55.94 47.48 56.72Z" fill="#2560DD"/>
<path d="M28.71 7.27002C28.46 7.29002 28.21 7.33002 27.96 7.35002C28.21 7.32002 28.46 7.29002 28.71 7.27002Z" fill="#4589FF"/>
<path d="M41.72 34.69C41.72 45.88 36.31 55.81 27.98 62.02C24.76 61.67 21.7 60.76 18.92 59.39L18.86 59.36C15.94 57.91 13.33 55.96 11.1 53.64H11.11C7.47 47.89 5.38 41.1 5.38 33.82C5.38 28.51 6.49 23.46 8.5 18.88C12.91 12.58 19.92 8.25002 27.96 7.36002C36.29 13.55 41.72 23.48 41.72 34.69Z" fill="#4589FF"/>
<path d="M58.52 34.69C58.52 49.88 46.21 62.21 31 62.21C29.97 62.21 28.96 62.16 27.96 62.03C36.3 55.83 41.7 45.9 41.7 34.69C41.7 23.48 36.29 13.55 27.96 7.35001C28.96 7.22001 29.97 7.17001 31 7.17001C46.21 7.17001 58.52 19.48 58.52 34.69Z" fill="#2560DD"/>
<path d="M20.49 51.35L18.91 59.38L18.85 59.35C15.93 57.9 13.32 55.95 11.09 53.63C11.06 53.6 11.03 53.57 11.01 53.54L12.2 53.07H12.21L19.23 50.3C19.55 50.16 19.88 50.22 20.12 50.4C20.4 50.59 20.56 50.95 20.49 51.35Z" fill="#2560DD"/>
<path d="M38.66 51.34C38.11 51.6 37.55 51.83 36.97 52.02C37.55 51.82 38.11 51.6 38.66 51.34Z" fill="#2560DD"/>
<path d="M41.73 34.68C41.73 36.76 41.55 38.79 41.19 40.76H41.18C40.1 40.59 38.99 40.51 37.86 40.51C35.59 40.51 33.42 40.84 31.41 41.46C30.15 41.84 28.95 42.33 27.83 42.92C24.69 44.56 22.19 46.96 20.67 49.8C23.61 51.83 23.61 51.84 20.67 49.81C15.85 46.51 12.69 40.96 12.69 34.68C12.69 24.56 20.9 16.34 31.03 16.34C33.12 16.34 35.12 16.69 36.99 17.33C39.99 22.4 41.73 28.34 41.73 34.68Z" fill="#2560DD"/>
<path d="M49.35 34.68C49.35 37.56 48.68 40.29 47.5 42.71C45.58 41.77 43.46 41.08 41.19 40.76C41.55 38.79 41.73 36.76 41.73 34.68C41.73 28.34 40 22.41 36.98 17.34C44.18 19.8 49.35 26.64 49.35 34.68Z" fill="#0E43BE"/>
<path d="M41.18 40.76C40.45 44.81 39 48.61 36.98 52.01C35.12 52.66 33.1 53.01 31.02 53.01C27.18 53.01 23.61 51.83 20.67 49.8C22.19 46.96 24.69 44.56 27.83 42.92C28.95 42.33 30.15 41.84 31.41 41.46C33.42 40.84 35.59 40.51 37.86 40.51C38.98 40.51 40.09 40.59 41.18 40.76Z" fill="#0E43BE"/>
<path d="M47.5 42.71C47.33 43.06 47.14 43.4 46.96 43.74C46.93 43.8 46.89 43.87 46.84 43.93C46.65 44.27 46.44 44.59 46.23 44.9C46.03 45.2 45.82 45.49 45.6 45.77C45.52 45.9 45.42 46.01 45.32 46.13C45.15 46.35 44.97 46.56 44.79 46.77C44.48 47.14 44.14 47.49 43.78 47.83C43.51 48.1 43.22 48.36 42.93 48.62C42.89 48.65 42.86 48.68 42.81 48.71C42.59 48.9 42.37 49.08 42.14 49.24C42.01 49.33 41.9 49.43 41.76 49.52C41.47 49.74 41.16 49.94 40.85 50.15C40.66 50.27 40.46 50.39 40.26 50.51C40.08 50.61 39.9 50.71 39.73 50.81C39.55 50.9 39.37 51 39.2 51.08C38.49 51.44 37.74 51.75 36.98 52.01C39 48.61 40.45 44.81 41.18 40.76C43.45 41.08 45.58 41.77 47.5 42.71Z" fill="#071A8C"/>
<path d="M58.52 34.68C58.52 49.87 46.21 62.19 31.01 62.19C30.69 62.19 30.37 62.19 30.06 62.17C44.87 61.74 56.75 49.61 56.75 34.68C56.75 19.75 44.88 7.62001 30.06 7.19001C30.37 7.17001 30.69 7.17001 31.01 7.17001C46.21 7.17001 58.52 19.48 58.52 34.68Z" fill="#0E43BE"/>
<path d="M11.09 53.63C6.39 48.71 3.51 42.03 3.51 34.67C3.51 28.78 5.35 23.33 8.51 18.87C6.5 23.45 5.39 28.5 5.39 33.81C5.39 41.09 7.47 47.88 11.1 53.63H11.09Z" fill="#6BBAF4"/>
<path d="M21.4 46.84L19.52 56.37C19.37 57.11 18.48 57.47 17.93 57L16.29 55.63C15.87 55.28 15.23 55.38 14.89 55.84L14.8 55.97L14.31 56.64C14.31 56.64 14.29 56.66 14.26 56.7L10.52 61.75C10.17 62.21 9.54 62.31 9.12 61.96L8.68 61.6L7.52 60.64C7.1 60.29 7.08 59.64 7.48 59.22L13.21 53.07L11.76 51.87L11.74 51.85L10.8 51.06C10.23 50.6 10.42 49.67 11.12 49.38L13.13 48.58H13.14L20.16 45.8C20.48 45.66 20.81 45.73 21.05 45.9C21.33 46.09 21.49 46.44 21.42 46.84H21.4Z" fill="#C0E9F2"/>
<path d="M21.4 46.84L21.35 47.09L21.33 47.18L19.53 56.37C19.38 57.11 18.49 57.47 17.94 57L17.33 56.5L16.29 55.63C15.92 55.33 15.48 55.44 15.38 55.47C19.37 53.77 20.69 47.11 21.04 45.89C21.32 46.08 21.48 46.43 21.41 46.83L21.4 46.84Z" fill="#94C6D3"/>
<path d="M14.25 56.7L12.68 58.83C12.68 58.83 12.64 58.88 12.58 58.97L10.52 61.76C10.17 62.22 9.54 62.32 9.12 61.97L8.68 61.6C10.69 60.53 13.81 57.19 14.26 56.71L14.25 56.7Z" fill="#94C6D3"/>
<path d="M21.33 47.19L19.53 56.38C19.38 57.12 18.49 57.48 17.94 57.01L17.33 56.51C19.38 55.78 21.12 48.15 21.33 47.19Z" fill="#769BAD"/>
<path d="M12.57 58.96L10.51 61.75C10.16 62.21 9.53 62.31 9.11 61.96C9.96 62.11 12.07 59.58 12.57 58.96Z" fill="#769BAD"/>
<path d="M11.72 51.83L10.78 51.04C10.21 50.58 10.4 49.65 11.1 49.36L13.11 48.56C10.22 49.71 11.53 51.58 11.72 51.83Z" fill="#D8F5F7"/>
<path d="M13.19 53.05C13.19 53.05 11.12 56.06 10.84 56.24C10.56 56.42 10.22 56.24 10.22 56.24L13.19 53.05Z" fill="#D8F5F7"/>
<path d="M43.85 34.68C43.85 37.92 42.66 40.87 40.67 43.13C40.08 43.8 39.43 44.41 38.72 44.95C37.06 46.19 35.1 47.05 32.95 47.37C32.32 47.45 31.67 47.51 31.02 47.51C23.94 47.51 18.19 41.77 18.19 34.68C18.19 30.11 20.58 26.09 24.18 23.83C24.94 23.34 25.76 22.94 26.62 22.63C27.99 22.13 29.47 21.85 31.02 21.85C34.86 21.85 38.32 23.55 40.67 26.23C42.65 28.48 43.85 31.45 43.85 34.68Z" fill="#ECAD03"/>
<path d="M26.86 35.58C27.57 35.58 28.14 34.79 28.14 33.82C28.14 32.85 27.57 32.06 26.86 32.06C26.15 32.06 25.58 32.85 25.58 33.82C25.58 34.79 26.15 35.58 26.86 35.58Z" fill="#050000"/>
<path d="M35.17 35.58C35.88 35.58 36.45 34.79 36.45 33.82C36.45 32.85 35.88 32.06 35.17 32.06C34.46 32.06 33.89 32.85 33.89 33.82C33.89 34.79 34.46 35.58 35.17 35.58Z" fill="#050000"/>
<path d="M34.22 38.59V39.47C34.22 39.6 34.22 39.74 34.19 39.87C33.99 41.32 32.75 42.44 31.25 42.44H30.77C29.27 42.44 28.02 41.32 27.82 39.87C27.8 39.74 27.79 39.6 27.79 39.47V38.59H34.22Z" fill="#050000"/>
<path d="M34.22 38.59V39.47C34.22 39.6 34.22 39.74 34.19 39.87H27.82C27.8 39.74 27.79 39.6 27.79 39.47V38.59H34.22Z" fill="white"/>
<path d="M40.66 43.13C41.35 40.43 41.72 37.59 41.72 34.68C41.72 31.77 41.35 28.93 40.66 26.23C42.64 28.48 43.84 31.45 43.84 34.68C43.84 37.91 42.66 40.87 40.66 43.13Z" fill="#D57E00"/>
<path d="M11.63 42.35C11.38 42.35 11.14 42.26 10.94 42.08C10.54 41.7 10.52 41.07 10.9 40.67L13.71 37.7C14.09 37.3 14.72 37.28 15.12 37.66C15.52 38.04 15.54 38.67 15.16 39.07L12.35 42.04C12.15 42.25 11.89 42.35 11.62 42.35H11.63ZM13.04 35.69L9.09 35.66C8.54 35.66 8.09 35.21 8.1 34.65C8.1 34.1 8.55 33.66 9.1 33.66L13.05 33.69C13.6 33.69 14.05 34.14 14.04 34.7C14.04 35.25 13.59 35.69 13.04 35.69ZM14.48 32.01C14.21 32.01 13.94 31.9 13.74 31.69L10.96 28.68C10.59 28.27 10.61 27.64 11.02 27.27C11.43 26.9 12.06 26.92 12.43 27.33L15.21 30.34C15.58 30.75 15.56 31.38 15.15 31.75C14.96 31.93 14.71 32.01 14.47 32.01H14.48Z" fill="#ECAD03"/>
</svg>
