<svg width="84" height="84" viewBox="0 0 84 84" fill="none" xmlns="http://www.w3.org/2000/svg">
<path d="M34.32 57.78V51.24H44.43C44.46 51.31 44.5 51.39 44.53 51.48C44.6 51.61 44.67 51.74 44.74 51.89C44.88 52.17 45.03 52.48 45.2 52.81C45.37 53.13 45.54 53.48 45.72 53.82C45.94 54.24 46.18 54.69 46.44 55.16C46.54 55.34 46.63 55.51 46.73 55.68C47.95 57.89 49.49 60.44 51.24 62.82C51.32 62.92 51.39 63.01 51.45 63.11C54.62 67.36 58.41 70.98 62.14 70.98H46.65C35.04 69.39 34.9 62.8 34.32 57.78ZM73.45 73.87L78.19 78.61C76.14 76.54 75.22 71.41 75.22 71.41L73.45 73.87Z" fill="#591C99"/>
<path d="M78.75 39.83V65.01C78.75 65.2 78.75 65.39 78.72 65.56V78.39C78.72 78.67 78.39 78.81 78.19 78.62C76.13 76.55 75.22 71.42 75.22 71.42C75.39 71.28 75.29 71.01 75.08 71.01H70.57L62.14 70.98C58.4 70.98 54.61 67.37 51.45 63.11C51.39 63.01 51.32 62.92 51.24 62.82C49.5 60.44 47.96 57.88 46.73 55.68C46.63 55.51 46.54 55.33 46.44 55.16C46.19 54.69 45.94 54.24 45.72 53.82C45.54 53.47 45.36 53.13 45.2 52.81C45.03 52.48 44.88 52.17 44.74 51.89C44.67 51.74 44.6 51.61 44.53 51.48C44.49 51.39 44.46 51.31 44.43 51.24H45.65C46.2 51.24 46.72 51.16 47.22 51.02C49.76 50.33 51.62 48 51.62 45.24V26.57H66.25C78.05 28.13 78.16 34.79 78.75 39.83Z" fill="#982AC6"/>
<path d="M78.75 39.84V32.57C78.75 29.82 76.89 27.49 74.34 26.8C73.47 26.65 72.57 26.58 71.69 26.58H66.24C78.05 28.14 78.15 34.79 78.74 39.84H78.75Z" fill="#D36AE5"/>
<path d="M75.07 71.01H70.57L73.44 73.88L75.21 71.42C75.38 71.28 75.28 71.01 75.07 71.01ZM34.3 57.75V65.02C34.3 67.78 36.17 70.1 38.71 70.79C39.58 70.95 40.48 71.02 41.35 71.02H46.8C35 69.46 34.89 62.8 34.3 57.76V57.75ZM49.68 26.57V35.22C50.3 34.9 50.95 34.63 51.61 34.4V26.58H49.68V26.57ZM41.37 49.98C41.35 49.9 41.35 49.81 41.34 49.73C41.16 49.7 38.85 49.73 37.18 49.73H34.3V51.24H41.51C41.44 50.82 41.39 50.4 41.36 49.97L41.37 49.98Z" fill="#1B0A59"/>
<path d="M71.74 48.79C71.74 57.18 64.92 63.98 56.53 63.98C54.75 63.98 53.03 63.67 51.45 63.11C46.3 61.27 42.43 56.77 41.54 51.24C41.47 50.82 41.42 50.4 41.39 49.97C41.37 49.89 41.37 49.8 41.36 49.72V49.61C41.36 49.61 41.36 49.69 41.36 49.72H42.64C43.52 49.72 44.42 49.65 45.29 49.49C47.83 48.81 49.69 46.48 49.69 43.72V35.2C50.31 34.88 50.96 34.61 51.62 34.38C53.16 33.85 54.81 33.57 56.53 33.57C64.92 33.57 71.74 40.38 71.74 48.78V48.79Z" fill="#EFB003"/>
<path d="M47.22 51.03C49.76 50.34 51.62 48.01 51.62 45.25V34.39C50.95 34.62 50.31 34.89 49.69 35.21V43.73C49.69 46.49 47.83 48.81 45.29 49.5C44.41 49.66 43.52 49.73 42.64 49.73H41.35C41.35 49.81 41.35 49.9 41.38 49.98C41.41 50.41 41.46 50.83 41.53 51.25C42.42 56.78 46.3 61.29 51.44 63.12C51.37 63.02 51.3 62.93 51.22 62.83C49.48 60.45 47.94 57.89 46.71 55.69C46.61 55.52 46.52 55.34 46.42 55.17C46.17 54.7 45.92 54.25 45.7 53.83C45.52 53.48 45.34 53.14 45.18 52.82C45.01 52.49 44.86 52.18 44.72 51.9C44.64 51.76 44.58 51.62 44.51 51.49C44.47 51.4 44.44 51.32 44.41 51.25H45.63C46.18 51.25 46.7 51.17 47.2 51.03H47.22Z" fill="#D87E00"/>
<path d="M65.3438 48.8937C65.8786 47.5255 65.5074 46.1017 64.5146 45.7137C63.5219 45.3256 62.2835 46.1202 61.7487 47.4885C61.2138 48.8567 61.5851 50.2805 62.5778 50.6686C63.5706 51.0566 64.8089 50.262 65.3438 48.8937Z" fill="#050000"/>
<path d="M56.3819 45.3846C56.9168 44.0164 56.5456 42.5926 55.5528 42.2045C54.56 41.8165 53.3217 42.6111 52.7868 43.9793C52.252 45.3476 52.6232 46.7714 53.616 47.1594C54.6087 47.5475 55.8471 46.7529 56.3819 45.3846Z" fill="#050000"/>
<path d="M58.29 56.37C52.86 56.37 50.6 51.72 50.57 51.66C50.34 51.18 50.55 50.6 51.04 50.37C51.53 50.14 52.1 50.35 52.32 50.83C52.44 51.08 55.2 56.62 62.53 53.44C63.02 53.22 63.59 53.45 63.8 53.94C64.01 54.43 63.79 55 63.3 55.21C61.4 56.04 59.73 56.36 58.29 56.36V56.37Z" fill="#050000"/>
<path d="M45.29 49.5C44.78 49.65 44.27 49.73 43.72 49.73H42.64C43.52 49.73 44.42 49.66 45.29 49.5Z" fill="#3A56C9"/>
<path d="M41.35 49.62C41.33 49.36 41.32 49.11 41.32 48.85C40.13 49.23 38.77 49.52 37.19 49.73H41.36C41.36 49.73 41.36 49.66 41.36 49.62H41.35Z" fill="#1B1B9E"/>
<path d="M49.69 11.27V14.8C47.75 22.46 40.72 37.94 15.16 49.74H8.93001C8.71001 49.74 8.61001 50.01 8.79001 50.15C8.79001 50.15 7.87001 55.28 5.82001 57.34C5.63001 57.54 5.29001 57.4 5.29001 57.12V44.41C5.27001 44.19 5.26001 43.97 5.26001 43.74V24.2C6.32001 20.05 8.20001 5.28999 23.95 5.28999H43.73C47.03 5.28999 49.71 7.96999 49.71 11.27H49.69Z" fill="#616FF2"/>
<path d="M49.69 14.79V36.46C49.1 41.51 49 48.17 37.2 49.72H15.16C40.72 37.93 47.74 22.44 49.69 14.78V14.79ZM8.79001 50.14C8.79001 50.14 7.87001 55.27 5.82001 57.34L10.56 52.6L8.79001 50.14Z" fill="#3A56C9"/>
<path d="M49.69 36.46V43.73C49.69 46.48 47.83 48.81 45.28 49.5C44.41 49.65 43.51 49.72 42.63 49.72H37.18C48.99 48.16 49.09 41.51 49.68 36.46H49.69ZM13.42 49.73H8.93C8.71 49.73 8.62 50 8.78 50.14L10.55 52.6L13.42 49.73Z" fill="#1B1B9E"/>
<path d="M23.94 5.28999C8.19 5.28999 6.31 20.05 5.25 24.19V11.27C5.25 7.96999 7.94 5.28999 11.24 5.28999H23.93H23.94Z" fill="#94C6F7"/>
<path d="M42.68 27.51C42.68 28.03 42.65 28.52 42.6 29.03C39.28 33.43 34.55 38.16 27.8 42.7C27.7 42.7 27.58 42.7 27.48 42.7C19.08 42.7 12.28 35.9 12.28 27.5C12.28 19.1 19.08 12.29 27.48 12.29C35.88 12.29 42.69 19.11 42.69 27.5L42.68 27.51Z" fill="#EFB003"/>
<path d="M28.0036 25.2986C28.3113 23.8621 27.7158 22.5166 26.6736 22.2934C25.6313 22.0701 24.5369 23.0536 24.2293 24.4901C23.9216 25.9266 24.517 27.2721 25.5593 27.4954C26.6016 27.7186 27.6959 26.7351 28.0036 25.2986Z" fill="#050000"/>
<path d="M37.3979 27.3181C37.7056 25.8816 37.1101 24.5361 36.0678 24.3128C35.0255 24.0896 33.9312 25.0731 33.6235 26.5096C33.3158 27.9461 33.9113 29.2916 34.9535 29.5148C35.9958 29.7381 37.0902 28.7546 37.3979 27.3181Z" fill="#050000"/>
<path d="M34.8201 32.26L34.5901 33.33C34.5501 33.49 34.5101 33.66 34.4501 33.81C33.8301 35.52 32.0401 36.55 30.2201 36.16L29.6401 36.03C27.8201 35.64 26.6001 33.96 26.7301 32.15C26.7401 31.98 26.7701 31.82 26.8001 31.65L27.0301 30.58L34.8101 32.25L34.8201 32.26Z" fill="#050000"/>
<path d="M34.82 32.26L34.59 33.33C34.55 33.49 34.51 33.66 34.45 33.81L26.73 32.16C26.74 31.99 26.77 31.83 26.8 31.66L27.03 30.59L34.81 32.26H34.82Z" fill="white"/>
<path d="M42.6 29.02C41.86 36.59 35.55 42.54 27.8 42.69C34.55 38.15 39.29 33.43 42.6 29.02Z" fill="#D87E00"/>
</svg>
