<svg width="84" height="84" viewBox="0 0 84 84" fill="none" xmlns="http://www.w3.org/2000/svg">
<path d="M42 12V45.3L20.67 69.4C20.67 69.4 18.97 71.27 16.4 72.8C12.11 72.96 9.2 73.37 6.23 73.73C5.54 73.59 5 73.01 5 72.29V23.75C5 23.75 6.88 21.88 8 21.48C9.12 21.08 21.86 10.34 21.86 10.34L23.04 9.22998C33.68 9.57998 39.8 11.29 41.5 11.83C41.84 11.94 42 12 42 12Z" fill="#458CFF"/>
<path d="M71.71 11.72L42 45.3V12C42 12 42.17 11.94 42.5 11.83C44.78 11.1 54.89 8.30998 73.07 9.41998C73.73 9.45998 71.71 11.72 71.71 11.72Z" fill="#458CFF"/>
<path d="M42 45.2999V63.2599L41.5 63.6099L32.57 69.7899C32.57 69.7899 31.37 72.1599 29.98 73.0499C24.1 72.7099 19.82 72.6699 16.4 72.7999C18.97 71.2699 20.67 69.3999 20.67 69.3999L42 45.2999Z" fill="#2560E0"/>
<path d="M42 63.26V74C41.83 73.98 41.67 73.97 41.5 73.95C37.07 73.54 33.28 73.24 29.98 73.05C31.37 72.16 32.57 69.79 32.57 69.79L41.5 63.61L42 63.26Z" fill="#0E43C1"/>
<path d="M79 11.2799V37.6099L76 39.7199L42.5 62.9099L42 63.2599V45.2999L71.71 11.7199L73.07 9.41992C74.54 9.51992 76.04 9.66992 77.61 9.81992C78.4 9.88992 79 10.5299 79 11.2799Z" fill="#2560E0"/>
<path d="M79 37.61V53.46C79 53.46 77.67 55.86 76 56.58L47.86 70.49C47.86 70.49 47.84 72.53 47.07 73.55C45.63 73.67 44.11 73.8 42.5 73.95C42.33 73.97 42.17 73.98 42 74V63.26L42.5 62.91L76 39.72L79 37.61Z" fill="#0E43C1"/>
<path d="M79 53.46V72.29C79 73.01 78.46 73.59 77.77 73.73C73.8 73.25 69.95 72.68 62.81 72.74C61.82 72.74 60.76 72.76 59.63 72.8H59.54C59.19 72.81 58.83 72.82 58.47 72.84C58.19 72.85 57.9 72.86 57.61 72.87C56.94 72.9 56.25 72.93 55.54 72.97C54.86 73 54.16 73.04 53.43 73.08C51.49 73.21 49.38 73.36 47.07 73.55C47.84 72.53 47.86 70.49 47.86 70.49L76 56.58C77.67 55.86 79 53.46 79 53.46Z" fill="#071A8C"/>
<path d="M42.5 62.91V73.95C42.33 73.97 42.17 73.98 42 74C41.83 73.98 41.67 73.97 41.5 73.95V63.61L42 63.26L42.5 62.91Z" fill="#071A8C"/>
<path d="M42.5 11.83V14.92C42.17 15.13 42 15.25 42 15.25C42 15.25 41.83 15.13 41.5 14.92V11.83C41.84 11.94 42 12 42 12C42 12 42.17 11.94 42.5 11.83Z" fill="#2560E0"/>
<path d="M4.03 11.04C4.03 10.97 4.06 10.9 4.1 10.83C4.06 11.34 4.03 11.94 4 12.6V11.32C4 11.23 4.01 11.13 4.03 11.04Z" fill="#458CFF"/>
<path d="M23.04 9.23L21.86 10.34C21.86 10.34 9.12 21.08 8 21.48C6.88 21.88 5 23.75 5 23.75V11.28C5 10.53 5.6 9.89 6.39 9.82C8.44 9.62 10.41 9.48 12.29 9.38C11.2 9.42 18.34 9.1 22.19 9.2C22.48 9.2 22.76 9.22 23.04 9.23Z" fill="#6BBDF7"/>
<path d="M23.01 67.32C23.01 67.32 22.06 68.53 20.67 69.4C16.06 69.72 12.24 70.5 10.03 71.02C8.99 71.27 8 70.51 8 69.46V21.48L10.02 20.25V67.44C10.02 68.43 10.95 69.15 11.92 68.91C14.16 68.38 18.19 67.57 23 67.32H23.01Z" fill="#BADEE2"/>
<path d="M34.55 68C34.31 67.95 34.06 67.92 33.82 67.88C34.06 67.91 34.31 67.95 34.55 68Z" fill="#80B8BF"/>
<path d="M33.82 67.8801C33.82 67.8801 33.48 69.3401 32.58 69.7901H32.57C31.92 69.6901 31.28 69.6101 30.63 69.5401C30.39 69.5101 30.15 69.4901 29.9 69.4601C26.66 69.1601 23.51 69.2001 20.67 69.4001C22.06 68.5301 23.01 67.3201 23.01 67.3201C26.35 67.1401 30.07 67.2301 33.82 67.8801Z" fill="#80B8BF"/>
<path d="M42 70.25V72.44C41.83 72.37 41.67 72.3 41.5 72.23C38.6 71.02 35.57 70.25 32.58 69.79C33.49 69.33 33.82 67.87 33.82 67.87C36.4 68.3 38.99 69 41.5 70.04C41.67 70.11 41.83 70.18 42 70.25Z" fill="#6D91AB"/>
<path d="M42 15.25V15.56C42 15.56 32.15 8.46002 13.92 11.22C13.39 11.3 12.85 11.38 12.31 11.48C15.79 10.74 18.98 10.4 21.86 10.34C32.95 10.06 39.69 13.76 41.5 14.92C41.83 15.13 42 15.25 42 15.25Z" fill="#E4F4F4"/>
<path d="M12.31 11.48C11.95 11.55 11.57 11.63 11.2 11.72C10.51 11.87 10.02 12.49 10.02 13.19V20.25L8 21.48V13.67C8 12.92 8.52 12.26 9.26 12.1C10.3 11.86 11.32 11.65 12.31 11.48Z" fill="#9EE1EA"/>
<path d="M42 15.25V63.67C41.83 63.67 41.67 63.68 41.5 63.69C32.68 64.03 23.41 67.17 23.01 67.32H23C18.19 67.57 14.16 68.38 11.92 68.91C10.95 69.15 10.02 68.43 10.02 67.44V20.25C10.02 20.25 14.47 11.87 21.86 10.34C32.95 10.06 39.69 13.76 41.5 14.92C41.83 15.13 42 15.25 42 15.25Z" fill="#E4F4F4"/>
<path d="M21.86 10.34C14.47 11.87 10.02 20.25 10.02 20.25V13.19C10.02 12.49 10.51 11.87 11.2 11.72C15.11 10.82 18.67 10.41 21.86 10.34Z" fill="#CAF5FF"/>
<path d="M34.55 68C33.97 67.89 33.4 67.79 32.82 67.71C33.15 67.76 33.49 67.81 33.82 67.87C34.06 67.91 34.31 67.95 34.55 68Z" fill="#BADEE2"/>
<path d="M42 63.67V65.89C42 65.89 41.82 65.91 41.5 65.94C40.02 66.13 35.64 66.75 33.82 67.87C30.06 67.23 26.35 67.14 23.01 67.32C23.41 67.17 32.68 64.03 41.5 63.69C41.67 63.68 41.83 63.67 42 63.67Z" fill="#BADEE2"/>
<path d="M42 65.89V70.25C41.83 70.18 41.67 70.11 41.5 70.04C38.99 69 36.4 68.3 33.82 67.87C35.64 66.75 40.02 66.13 41.5 65.94C41.82 65.91 42 65.89 42 65.89Z" fill="#80B8BF"/>
<path d="M6.93 9.77005C6.75 9.78005 6.57 9.80005 6.39 9.82005C5.6 9.89005 5 10.53 5 11.28V72.29C5 73.01 5.54 73.59 6.23 73.73C6.06 73.75 5.9 73.7701 5.73 73.79C4.81 73.9 4 73.21 4 72.33V11.32C4 10.57 4.6 9.93005 5.39 9.86005C5.91 9.81005 6.43 9.76005 6.93 9.72005C8.79 9.56005 8.79 9.60005 6.93 9.77005Z" fill="#2560E0"/>
<path d="M76 13.67V39.72C76 40.67 73.98 42 73.98 42V13.19C73.98 12.49 73.49 11.87 72.8 11.72C72.44 11.64 72.09 11.56 71.74 11.49C72.72 11.66 73.72 11.87 74.74 12.1C75.48 12.26 76 12.92 76 13.67Z" fill="#80B8BF"/>
<path d="M48.61 68.17C48.61 68.17 48.62 68.16 48.63 68.16C48.24 68.75 48.18 69.51 47.86 70.49C47.68 70.53 47.51 70.58 47.33 70.62C45.7 71.04 44.08 71.57 42.5 72.23C42.33 72.3 42.17 72.37 42 72.44V70.25C42.17 70.18 42.33 70.11 42.5 70.04C44.49 69.21 46.54 68.6 48.6 68.17H48.61Z" fill="#6D91AB"/>
<path d="M76 39.72V56.58C75.4 57.47 73.98 58.29 73.98 58.29V42C73.98 42 76 40.67 76 39.72Z" fill="#6D91AB"/>
<path d="M69.62 70.14C70.42 70.27 71.16 70.42 71.84 70.56C71.16 70.42 70.42 70.28 69.62 70.14Z" fill="#6D91AB"/>
<path d="M76 56.58V69.46C76 70.51 75.01 71.27 73.97 71.02C73.37 70.88 72.65 70.72 71.84 70.56C70.49 70.27 68.87 69.99 67.04 69.76C66.65 69.7 66.26 69.66 65.85 69.62C65.24 69.55 64.61 69.49 63.96 69.44C63.85 69.43 63.73 69.42 63.62 69.42C63.28 69.39 62.93 69.37 62.57 69.35C62.3 69.33 62.02 69.32 61.75 69.31C57.47 69.11 52.63 69.34 47.86 70.49C48.18 69.51 48.24 68.75 48.63 68.17C58.31 66.13 68.06 67.95 72.08 68.91C73.05 69.15 73.98 68.43 73.98 67.44V58.29C73.98 58.29 75.4 57.47 76 56.58Z" fill="#3C5060"/>
<path d="M72.8 11.7199C72.8 11.7199 70.95 24.8999 69.78 32.3499C68.63 39.6799 52.24 60.8499 42.5 63.5499C42.33 63.5899 42.16 63.6299 42 63.6699V15.2499C42 15.2499 42.17 15.1299 42.5 14.9199C44.84 13.4299 55.33 7.71994 72.8 11.7199Z" fill="#E4F4F4"/>
<path d="M73.98 13.19V42C72.52 45.6 70.59 52.05 65.67 56.58C58.32 63.36 45.22 65.45 42.5 65.82C42.18 65.87 42 65.89 42 65.89V63.67C42.16 63.63 42.33 63.59 42.5 63.55C52.24 60.85 68.63 39.68 69.78 32.35C70.95 24.9 72.8 11.72 72.8 11.72C73.49 11.87 73.98 12.49 73.98 13.19Z" fill="#BADEE2"/>
<path d="M73.98 42V58.29C73.98 61.57 67.33 63.17 63.33 63.67C59.46 64.15 49.26 67.92 48.63 68.16C48.63 68.16 48.6233 68.1633 48.61 68.17H48.6C46.54 68.6 44.49 69.21 42.5 70.04C42.33 70.11 42.17 70.18 42 70.25V65.89C42 65.89 42.18 65.87 42.5 65.82C45.22 65.45 58.32 63.36 65.67 56.58C70.59 52.05 72.52 45.6 73.98 42Z" fill="#80B8BF"/>
<path d="M73.98 58.2899V67.4399C73.98 68.4299 73.05 69.1499 72.08 68.9099C68.06 67.9499 58.31 66.1299 48.63 68.1599C49.26 67.9199 59.46 64.1499 63.33 63.6699C67.33 63.1699 73.98 61.5699 73.98 58.2899Z" fill="#6D91AB"/>
<path d="M42.5 14.9199V70.0399C42.33 70.1099 42.17 70.1799 42 70.2499C41.83 70.1799 41.67 70.1099 41.5 70.0399V14.9199C41.83 15.1299 42 15.2499 42 15.2499C42 15.2499 42.17 15.1299 42.5 14.9199Z" fill="#BADEE2"/>
<path d="M78.61 9.85995C76.17 9.63995 75.53 9.64995 77.61 9.81995C78.4 9.88995 79 10.5299 79 11.2799V72.29C79 73.01 78.46 73.59 77.77 73.7299C77.94 73.7499 78.1 73.77 78.27 73.7899C79.19 73.8999 80 73.21 80 72.33V11.3199C80 10.5699 79.4 9.92995 78.61 9.85995Z" fill="#020A11"/>
<path d="M4.03 11.04C4.03 10.97 4.06 10.9 4.1 10.83C4.06 11.34 4.03 11.94 4 12.6V11.32C4 11.23 4.01 11.13 4.03 11.04Z" fill="#2560E0"/>
<path d="M6.93 9.71997V9.76997C6.75 9.77997 6.57 9.79997 6.39 9.81997C5.6 9.88997 5 10.53 5 11.28V23.75L4 24.66V11.32C4 10.57 4.6 9.92997 5.39 9.85997C5.91 9.80997 6.43 9.75997 6.93 9.71997Z" fill="#458CFF"/>
<path d="M42.5 63.5499V70.0399C42.33 70.1099 42.17 70.1799 42 70.2499C41.83 70.1799 41.67 70.1099 41.5 70.0399V63.6899C41.67 63.6799 41.83 63.6699 42 63.6699C42.16 63.6299 42.33 63.5899 42.5 63.5499Z" fill="#80B8BF"/>
<path d="M42.5 65.8199V70.0399C42.33 70.1099 42.17 70.1799 42 70.2499C41.83 70.1799 41.67 70.1099 41.5 70.0399V65.9399C41.82 65.9099 42 65.8899 42 65.8899C42 65.8899 42.18 65.8699 42.5 65.8199Z" fill="#6D91AB"/>
<path d="M53.48 31.7199C53.24 31.5899 52.95 31.5899 52.72 31.7299C52.19 32.0499 51.67 32.4199 51.19 32.8099C50.87 33.0699 50.82 33.5399 51.08 33.8699C51.34 34.1899 51.81 34.2399 52.13 33.9799C52.2 33.9199 52.27 33.8699 52.34 33.8099C52.29 35.3799 52.13 36.9399 51.88 38.4799C51.81 38.8899 52.09 39.2699 52.5 39.3399C52.54 39.3399 52.58 39.3399 52.62 39.3399C52.98 39.3399 53.3 39.0799 53.36 38.7099C53.7 36.6199 53.87 34.4799 53.86 32.3499C53.86 32.0799 53.71 31.8299 53.48 31.6999V31.7199Z" fill="#CE0000"/>
<path d="M57.68 30.83C56.85 30.74 56.02 31.17 55.62 31.85C55.52 31.94 55.44 32.06 55.4 32.2C55.03 33.44 54.9 34.77 55.02 36.06C55.07 36.58 55.18 37.25 55.63 37.78C56.16 38.39 56.95 38.57 57.47 38.69C57.56 38.71 57.69 38.74 57.85 38.74C57.96 38.74 58.08 38.73 58.2 38.68C58.41 38.61 58.55 38.49 58.67 38.38C59.61 37.5 60.14 36.13 60.16 34.52C60.17 33.64 60.03 32.92 59.71 32.32C59.28 31.49 58.49 30.92 57.66 30.83H57.68ZM57.74 37.2C57.32 37.1 56.95 37 56.77 36.79C56.6 36.59 56.54 36.22 56.52 35.91C56.43 34.94 56.51 33.94 56.74 32.99C56.81 32.9 56.86 32.8 56.88 32.69C56.93 32.48 57.24 32.29 57.52 32.32C57.85 32.36 58.2 32.63 58.4 33.01C58.59 33.38 58.69 33.87 58.68 34.5C58.68 35.16 58.54 36.37 57.74 37.2Z" fill="#CE0000"/>
<path d="M63.41 30.18C62.59 30.09 61.75 30.52 61.35 31.2C61.25 31.29 61.17 31.41 61.13 31.55C60.76 32.79 60.63 34.12 60.75 35.41C60.8 35.93 60.91 36.6 61.36 37.13C61.89 37.74 62.68 37.92 63.2 38.04C63.29 38.06 63.42 38.09 63.58 38.09C63.69 38.09 63.81 38.08 63.93 38.03C64.14 37.96 64.29 37.83 64.4 37.73C65.34 36.85 65.87 35.48 65.89 33.87C65.9 32.99 65.75 32.27 65.44 31.67C65.01 30.84 64.22 30.27 63.39 30.18H63.41ZM63.47 36.55C63.05 36.45 62.68 36.35 62.51 36.14C62.34 35.94 62.28 35.57 62.26 35.26C62.17 34.29 62.25 33.28 62.48 32.34C62.55 32.25 62.6 32.15 62.62 32.04C62.67 31.83 62.97 31.64 63.26 31.67C63.59 31.71 63.94 31.98 64.14 32.36C64.33 32.73 64.43 33.22 64.42 33.85C64.42 34.51 64.28 35.72 63.48 36.55H63.47Z" fill="#CE0000"/>
<path d="M69.92 31.42C69.92 31.42 69.91 31.4 69.91 31.39C69.25 29.96 67.96 28.27 65.49 26.89C65.73 26.77 65.89 26.53 65.9 26.24C65.92 25.83 65.59 25.48 65.18 25.47C65 25.47 63.9 25.44 62.29 25.55C61.37 25.26 60.36 25.01 59.24 24.82C58.84 24.74 58.44 25.02 58.37 25.42C58.33 25.63 58.39 25.84 58.5 25.99C53.21 26.91 46.55 29.38 45.45 35.98C44.95 38.97 46.22 41.1 49.11 42.15C50.47 42.64 52.16 42.85 53.99 42.85C58.08 42.85 62.84 41.79 66.09 40.45C67.94 39.68 69.3 38.82 69.77 38.02C70.63 36.54 71.12 34.03 69.92 31.42ZM68.47 37.26C68.33 37.5 67.98 37.79 67.46 38.09C64.27 39.98 54.75 42.59 49.62 40.74C47.43 39.95 46.55 38.47 46.93 36.23C48.11 29.12 57.3 27.46 62.15 27.08C66.07 28.37 67.79 30.4 68.55 32.02C68.96 32.91 69.13 33.78 69.14 34.57C69.15 35.65 68.86 36.59 68.47 37.26Z" fill="#CE0000"/>
<path d="M69.21 43.94C69.25 44.35 68.94 44.72 68.53 44.75C66.42 44.94 64.41 45.25 62.55 45.63C55.08 47.14 49.93 49.68 49.87 49.71C49.76 49.76 49.65 49.78 49.54 49.78C49.26 49.78 49 49.63 48.87 49.37C48.68 49 48.83 48.55 49.2 48.36C49.49 48.22 55.36 45.32 63.83 43.86C65.28 43.61 66.81 43.4 68.4 43.26C68.8 43.23 69.17 43.53 69.21 43.94Z" fill="#CE0000"/>
<path d="M67.48 48.7C67.44 49.11 67.08 49.42 66.66 49.37C64.06 49.11 61.65 49.18 59.64 49.35C56.31 49.64 54.1 50.25 54.06 50.27C53.99 50.29 53.92 50.3 53.86 50.3C53.53 50.3 53.23 50.08 53.13 49.75C53.02 49.35 53.25 48.94 53.65 48.83C53.82 48.78 56.71 47.98 60.92 47.76C62.68 47.66 64.68 47.67 66.8 47.88C67.21 47.92 67.52 48.29 67.48 48.7Z" fill="#CE0000"/>
<path d="M42.5 70.0399V72.2299C42.33 72.2999 42.17 72.3699 42 72.4399C41.83 72.3699 41.67 72.2999 41.5 72.2299V70.0399C41.67 70.1099 41.83 70.1799 42 70.2499C42.17 70.1799 42.33 70.1099 42.5 70.0399Z" fill="#3C5060"/>
<path d="M67.48 48.7C67.44 49.11 67.08 49.42 66.66 49.37C64.06 49.11 61.65 49.18 59.64 49.35C60.08 48.82 60.51 48.29 60.92 47.76C62.68 47.66 64.68 47.67 66.8 47.88C67.21 47.92 67.52 48.29 67.48 48.7Z" fill="#540C00"/>
<path d="M69.21 43.94C69.25 44.35 68.94 44.72 68.53 44.75C66.42 44.94 64.41 45.25 62.55 45.63C62.99 45.04 63.42 44.44 63.83 43.86C65.28 43.61 66.81 43.4 68.4 43.26C68.8 43.23 69.17 43.53 69.21 43.94Z" fill="#540C00"/>
<path d="M69.77 38.0199C69.3 38.8199 67.94 39.6799 66.09 40.4499C66.59 39.6399 67.05 38.8499 67.46 38.0899C67.98 37.7899 68.33 37.4999 68.47 37.2599C68.86 36.5899 69.15 35.6499 69.14 34.5699C69.46 33.7399 69.68 32.9899 69.78 32.3499C69.83 32.0499 69.87 31.7399 69.92 31.4199C71.12 34.0299 70.63 36.5399 69.77 38.0199Z" fill="#540C00"/>
<path d="M36.98 23.45C36.98 24.31 36.28 25.01 35.42 25.01H27.64C28.5 25.01 29.2 24.31 29.2 23.45C29.2 22.59 28.5 21.9 27.64 21.9H35.42C36.28 21.9 36.98 22.6 36.98 23.45Z" fill="#AE53C4"/>
<path d="M36.98 32.77C36.98 33.63 36.28 34.33 35.42 34.33H23.94C24.8 34.33 25.5 33.63 25.5 32.77C25.5 31.91 24.8 31.22 23.94 31.22H35.42C36.28 31.22 36.98 31.92 36.98 32.77Z" fill="#AE53C4"/>
<path d="M36.98 42.1C36.98 42.95 36.28 43.65 35.42 43.65H31.03C31.89 43.65 32.58 42.95 32.58 42.1C32.58 41.25 31.89 40.54 31.03 40.54H35.42C36.28 40.54 36.98 41.24 36.98 42.1Z" fill="#AE53C4"/>
<path d="M20.09 50.4001C20.58 50.4001 21.05 50.5001 21.48 50.6701L22.43 48.6801C21.71 48.3701 20.92 48.2101 20.09 48.2101C16.77 48.2101 14.08 50.8901 14.08 54.2101C14.08 56.4901 15.35 58.4601 17.22 59.4701C17.25 59.4901 17.26 59.5101 17.29 59.5201L18.23 57.5301C18.23 57.5301 18.2 57.5101 18.2 57.5001C17.05 56.8601 16.29 55.6101 16.29 54.2101C16.29 52.1001 17.99 50.4001 20.09 50.4001Z" fill="#E879BE"/>
<path d="M35.61 51.52H29.31C28.8626 51.52 28.5 51.8827 28.5 52.33C28.5 52.7774 28.8626 53.14 29.31 53.14H35.61C36.0574 53.14 36.42 52.7774 36.42 52.33C36.42 51.8827 36.0574 51.52 35.61 51.52Z" fill="#2560E0"/>
<path d="M33.44 55.28H29.31C28.8626 55.28 28.5 55.6427 28.5 56.09C28.5 56.5374 28.8626 56.9 29.31 56.9H33.44C33.8873 56.9 34.25 56.5374 34.25 56.09C34.25 55.6427 33.8873 55.28 33.44 55.28Z" fill="#2560E0"/>
<path d="M26.11 54.2101C26.11 55.6501 25.61 56.9701 24.75 58.0001L23.29 56.2801C23.68 55.6801 23.9 54.9701 23.9 54.2101C23.9 52.5901 22.89 51.2201 21.48 50.6701L22.43 48.6801C24.59 49.5801 26.11 51.7201 26.11 54.2101Z" fill="#458CFF"/>
<path d="M27.64 21.9H15.58C14.7184 21.9 14.02 22.5962 14.02 23.455C14.02 24.3138 14.7184 25.01 15.58 25.01H27.64C28.5016 25.01 29.2 24.3138 29.2 23.455C29.2 22.5962 28.5016 21.9 27.64 21.9Z" fill="#8131AA"/>
<path d="M23.94 31.22H15.58C14.7184 31.22 14.02 31.9162 14.02 32.775C14.02 33.6338 14.7184 34.33 15.58 34.33H23.94C24.8016 34.33 25.5 33.6338 25.5 32.775C25.5 31.9162 24.8016 31.22 23.94 31.22Z" fill="#8131AA"/>
<path d="M31.02 40.54H15.58C14.7184 40.54 14.02 41.2362 14.02 42.095C14.02 42.9538 14.7184 43.65 15.58 43.65H31.02C31.8816 43.65 32.58 42.9538 32.58 42.095C32.58 41.2362 31.8816 40.54 31.02 40.54Z" fill="#8131AA"/>
<path d="M24.75 58C23.66 59.35 21.98 60.21 20.1 60.21C19.09 60.21 18.13 59.95 17.3 59.52C17.27 59.52 17.25 59.49 17.23 59.47L18.21 57.5C18.21 57.5 18.24 57.52 18.25 57.53C18.8 57.85 19.44 58.02 20.11 58.02C21.45 58.02 22.63 57.33 23.3 56.28L24.76 58H24.75Z" fill="#2560E0"/>
<path d="M80.38 11.9799C80.25 11.9699 80.12 11.9499 80 11.9399V72.3299C80 73.2099 79.19 73.8999 78.27 73.7899C78.1 73.7699 77.94 73.7499 77.77 73.7299C73.8 73.2499 69.95 72.6799 62.81 72.7399C61.82 72.7399 60.76 72.7599 59.63 72.7999H59.54C59.19 72.8099 58.83 72.8199 58.47 72.8399C58.19 72.8499 57.9 72.8599 57.61 72.8699C56.94 72.8999 56.25 72.9299 55.54 72.9699C54.86 72.9999 54.16 73.0399 53.43 73.0799C51.49 73.2099 49.38 73.3599 47.07 73.5499C45.63 73.6699 44.11 73.7999 42.5 73.9499C42.33 73.9699 42.17 73.9799 42 73.9999C41.83 73.9799 41.67 73.9699 41.5 73.9499C37.07 73.5399 33.28 73.2399 29.98 73.0499C24.1 72.7099 19.82 72.6699 16.4 72.7999C12.11 72.9599 9.2 73.3699 6.23 73.7299C6.07 73.7499 5.93 73.7699 5.77 73.7899V74.4499C5.77 75.3299 6.58 76.0199 7.5 75.9099C7.67 75.8899 7.83 75.8699 8 75.8499C10.97 75.4899 13.88 75.0799 18.17 74.9199C18.55 74.8999 18.94 74.8899 19.34 74.8799C19.49 74.8799 19.64 74.8699 19.78 74.8699C20.08 74.8599 20.37 74.8599 20.68 74.8599C20.81 74.8499 20.94 74.8499 21.07 74.8499C23.96 74.8299 27.42 74.9099 31.75 75.1699C33.88 75.2899 36.21 75.4599 38.8 75.6699C38.84 75.6799 38.89 75.6799 38.94 75.6799C40.47 75.8099 42.07 75.9499 43.77 76.1199C44.62 76.0299 45.45 75.9599 46.26 75.8899C46.31 75.8799 46.37 75.8799 46.43 75.8699C47.26 75.7999 48.06 75.7299 48.84 75.6699C50.65 75.5199 52.34 75.3899 53.93 75.2799C54.68 75.2299 55.4 75.1899 56.11 75.1499C56.51 75.1299 56.92 75.0999 57.31 75.0899C58.02 75.0499 58.71 75.0199 59.38 74.9899C59.67 74.9799 59.96 74.9699 60.24 74.9599C60.61 74.9399 60.96 74.9299 61.31 74.9199H61.4C61.88 74.8999 62.34 74.8899 62.79 74.8799C62.93 74.8699 63.06 74.8699 63.2 74.8699C63.67 74.8599 64.13 74.8599 64.58 74.8599C71.72 74.7999 75.57 75.3699 79.54 75.8499C79.71 75.8699 79.87 75.8899 80.04 75.9099C80.96 76.0199 81.77 75.3299 81.77 74.4499V13.4399C81.77 12.6899 81.17 12.0499 80.38 11.9799Z" fill="#EAEAEA"/>
</svg>
