<svg width="84" height="84" viewBox="0 0 84 84" fill="none" xmlns="http://www.w3.org/2000/svg">
<path d="M17.051 70.343H78.674C79.688 70.343 80.51 69.521 80.51 68.507V68.327C80.51 67.313 79.688 66.491 78.674 66.491H17.051C16.037 66.491 15.215 67.313 15.215 68.327V68.507C15.215 69.521 16.037 70.343 17.051 70.343Z" fill="#C5D9EA"/>
<path d="M79.283 29.752H73.483V29.882C72.613 29.132 71.743 31.872 71.743 31.872C71.743 31.872 65.803 57.872 62.993 62.902V29.752H57.193C56.103 29.752 55.563 28.432 56.333 27.662L67.3831 16.622C67.6131 16.382 67.933 16.272 68.233 16.272C68.423 16.272 68.6031 16.302 68.7731 16.402C68.8931 16.442 69.003 16.522 69.103 16.622L80.153 27.662C80.923 28.432 80.373 29.752 79.283 29.752Z" fill="#3DC967"/>
<path d="M63.053 68.782C63.133 68.782 63.213 68.772 63.293 68.762C63.223 68.772 63.143 68.782 63.063 68.792C63.053 68.782 63.053 68.782 63.053 68.782Z" fill="#19A33D"/>
<path d="M73.483 29.882V54.822C73.483 54.822 72.663 55.242 72.423 56.962C72.103 59.192 72.913 67.222 63.823 68.682C64.643 67.442 64.933 65.532 65.013 64.352C65.073 63.752 65.073 63.352 65.073 63.352C65.573 63.372 65.993 63.312 66.343 63.162C67.173 62.812 67.623 61.942 67.763 60.322L67.773 60.252C67.843 59.262 67.813 58.002 67.673 56.422C67.673 56.352 67.663 56.292 67.633 56.232C67.483 55.812 66.963 55.562 66.663 55.452C66.533 55.392 66.443 55.382 66.443 55.382C66.663 55.382 66.833 55.362 66.983 55.322C67.783 55.152 68.193 54.732 68.533 53.642C68.723 53.022 68.893 51.742 68.973 50.492C69.003 50.062 69.013 49.642 69.013 49.252C69.013 49.052 69.013 48.872 69.003 48.702V48.542C68.963 48.072 68.943 47.752 68.933 47.692V47.682C69.053 47.632 69.143 47.592 69.243 47.532C69.293 47.502 69.353 47.482 69.413 47.432C70.393 46.752 70.553 45.312 70.543 43.672C70.543 42.832 70.503 41.932 70.503 41.042C70.503 41.002 70.503 40.972 70.493 40.922C70.473 40.382 70.243 39.952 69.903 39.612C70.993 35.152 71.743 31.872 71.743 31.872C71.743 31.872 72.613 29.132 73.483 29.882Z" fill="#19A33D"/>
<path d="M57.74 29.756H57.198C56.105 29.756 55.562 28.435 56.332 27.666L67.379 16.628C67.615 16.383 67.93 16.269 68.236 16.269C68.42 16.269 68.603 16.304 68.77 16.4C66.942 18.175 57.084 27.901 57.74 29.756Z" fill="#70E0AD"/>
<path d="M69.9 39.612C67.914 47.697 64.807 59.658 62.987 62.904V38.264H65.253C65.254 38.265 68.535 38.221 69.9 39.612Z" fill="#19A33D"/>
<path d="M72.419 56.962C72.104 59.189 72.909 67.23 63.813 68.687C63.812 68.687 63.811 68.687 63.81 68.687C64.641 67.453 64.929 65.529 65.017 64.357V64.348C65.069 63.753 65.069 63.35 65.069 63.35C65.568 63.376 65.988 63.315 66.338 63.166C67.169 62.807 67.624 61.941 67.764 60.322L67.773 60.252C67.843 59.263 67.808 58.003 67.677 56.419C67.668 56.349 67.66 56.288 67.633 56.235C67.484 55.815 66.959 55.561 66.662 55.448C66.531 55.396 66.443 55.378 66.443 55.378C66.662 55.378 66.837 55.36 66.985 55.326C67.781 55.151 68.193 54.731 68.534 53.637C68.718 53.024 68.893 51.738 68.972 50.496V50.487C69.016 49.848 69.033 49.21 69.007 48.702V48.676C69.007 48.632 68.998 48.589 68.998 48.545C68.963 48.072 68.946 47.749 68.937 47.688V47.68C69.051 47.636 69.147 47.592 69.243 47.531C69.295 47.505 69.357 47.479 69.409 47.435C70.389 46.753 70.555 45.318 70.546 43.673C70.546 42.833 70.502 41.932 70.502 41.048C70.502 41.004 70.502 40.969 70.493 40.925C70.467 40.383 70.239 39.954 69.898 39.613C67.912 47.698 64.805 59.659 62.985 62.905V68.26C62.985 68.444 63.011 68.619 63.055 68.785C63.28 68.77 63.489 68.738 63.699 68.703C63.477 68.737 63.254 68.77 63.02 68.796C63.01 68.796 63 68.798 62.988 68.8V69.282C62.988 69.676 63.626 69.991 64.405 69.991H72.076C72.854 69.991 73.484 69.676 73.484 69.282V54.822C73.484 54.821 72.662 55.244 72.419 56.962Z" fill="#227A0C"/>
<path d="M62.987 68.26C62.987 68.444 63.013 68.619 63.057 68.785C63.048 68.794 63.031 68.794 63.022 68.794C63.013 68.724 62.987 68.654 62.987 68.575V68.26Z" fill="#227A0C"/>
<path d="M19.08 36.847C18.126 40.19 17.505 45.562 17.505 51.626C17.505 56.78 17.951 61.443 18.677 64.777C19.29 67.621 20.103 69.502 21.005 69.904V69.992H8.807C6.698 69.992 4.878 68.749 4.029 66.956C3.696 66.274 3.513 65.504 3.513 64.69V38.553C3.513 35.805 5.604 33.548 8.264 33.277C8.439 33.259 8.623 33.251 8.806 33.251H21.004V33.338C20.287 33.662 19.622 34.922 19.08 36.847Z" fill="#5900BD"/>
<path d="M21.005 69.905V69.993H8.80699C6.69799 69.993 4.87799 68.75 4.02899 66.957C13.785 63.361 16.752 50.455 17.618 47.261C17.539 48.661 17.504 50.122 17.504 51.627C17.504 56.684 17.933 61.278 18.641 64.594C18.65 64.655 18.667 64.717 18.676 64.778C19.29 67.621 20.104 69.502 21.005 69.905Z" fill="#041996"/>
<path d="M21.005 69.905V69.993H10.12C13.804 67.753 16.306 64.096 17.995 60.569C18.17 62.057 18.389 63.413 18.642 64.594C18.651 64.655 18.668 64.717 18.677 64.778C19.29 67.621 20.104 69.502 21.005 69.905Z" fill="#010775"/>
<path d="M19.167 36.856C19.123 36.856 19.097 36.847 19.08 36.847C19.719 34.589 20.515 33.251 21.372 33.251C22.265 33.251 23.078 34.686 23.735 37.092C23.612 37.101 23.481 37.11 23.341 37.118H23.289C22.257 37.162 20.962 37.057 19.955 36.943C19.657 36.917 19.395 36.891 19.167 36.856Z" fill="#000A2D"/>
<path d="M23.954 65.302C23.263 68.216 22.361 69.992 21.373 69.992C20.323 69.992 19.378 68.006 18.678 64.777L23.954 65.302Z" fill="#000A2D"/>
<path d="M67.607 42.535C67.616 44.18 67.45 45.615 66.469 46.297C66.417 46.341 66.355 46.367 66.303 46.393C66.207 46.454 66.111 46.498 65.997 46.542V46.551C66.006 46.612 66.023 46.936 66.058 47.409C66.058 47.453 66.067 47.496 66.067 47.54V47.566C66.093 48.073 66.076 48.712 66.032 49.351V49.36C65.953 50.602 65.778 51.889 65.594 52.501C65.253 53.603 64.842 54.015 64.045 54.19C63.896 54.225 63.721 54.242 63.503 54.242C63.503 54.242 63.59 54.259 63.722 54.312C64.019 54.426 64.545 54.68 64.693 55.1C64.719 55.152 64.728 55.214 64.737 55.284C64.868 56.868 64.903 58.128 64.833 59.117L64.824 59.187C64.684 60.806 64.229 61.672 63.398 62.031C63.048 62.18 62.628 62.241 62.129 62.215C62.129 62.215 62.129 62.618 62.077 63.213V63.222C61.937 65.042 61.342 68.708 58.953 68.708C58.411 68.708 57.632 68.857 56.625 69.075C56.616 69.075 56.608 69.084 56.599 69.084C55.916 69.224 55.12 69.399 54.236 69.574C54.236 69.574 54.227 69.574 54.218 69.574C54.201 69.574 54.174 69.583 54.157 69.583C53.606 69.653 49.808 69.959 40.244 68.244C29.823 66.363 23.339 37.12 23.339 37.12C23.479 37.111 23.61 37.102 23.733 37.094C24.284 37.042 24.713 36.937 24.923 36.753C25.868 35.904 34.102 29.228 35.852 28.887C36.806 28.703 38.022 25.86 38.932 23.304C39.037 23.024 39.133 22.744 39.23 22.464C39.772 20.871 40.157 19.55 40.227 19.305C40.245 19.279 40.245 19.261 40.245 19.261C40.245 19.261 40.683 17.581 41.444 16.12C41.584 15.858 41.733 15.604 41.89 15.368C42.406 14.589 42.896 13.95 43.85 14.003C47.507 14.187 49.739 13.985 49.669 22.762C49.651 24.477 48.733 27.093 47.709 29.429C46.642 31.862 45.46 33.988 45.058 34.469C43.711 36.079 44.489 37.129 44.489 37.129H62.313C62.313 37.129 67.406 37.068 67.554 39.789C67.563 39.833 67.563 39.868 67.563 39.912C67.564 40.793 67.607 41.695 67.607 42.535Z" fill="#EFB003"/>
<path d="M17.601 33.28C7.46401 33.28 4.38501 43.785 3.51001 48.491V38.555C3.51001 35.809 5.60001 33.552 8.26801 33.281H17.601V33.28Z" fill="#B703FF"/>
<path d="M25.159 65.425L23.952 65.303L18.678 64.778C17.952 61.445 17.506 56.783 17.506 51.623C17.506 45.561 18.127 40.191 19.08 36.85C19.08 36.849 20.435 58.856 25.159 65.425Z" fill="#884600"/>
<path d="M41.611 37.145C41.681 35.465 45.478 31.528 46.056 30.469C46.625 29.445 47.64 29.428 47.71 29.428C46.643 31.861 45.461 33.987 45.059 34.468C43.712 36.078 44.49 37.128 44.49 37.128L41.611 37.145ZM40.246 68.242C29.825 66.361 23.341 37.118 23.341 37.118H23.289C22.257 37.162 20.962 37.057 19.955 36.943C19.657 36.917 19.395 36.891 19.167 36.856C19.123 36.856 19.097 36.847 19.08 36.847C19.08 36.847 20.436 58.853 25.161 65.424L28.425 65.748C39.844 71.523 48.786 70.613 54.159 69.581C53.607 69.651 49.81 69.957 40.246 68.242ZM61.038 46.777L66.059 47.407C66.024 46.882 65.998 46.541 65.998 46.541C66.112 46.497 66.208 46.454 66.304 46.392C66.356 46.366 66.418 46.34 66.47 46.296C67.45 45.614 67.616 44.179 67.607 42.535C67.607 42.535 66.373 46.156 61.038 46.777ZM61.895 54.229L63.723 54.316C63.592 54.264 63.504 54.246 63.504 54.246C63.723 54.246 63.898 54.228 64.046 54.193C64.842 54.018 65.253 53.598 65.594 52.496C65.778 51.884 65.953 50.598 66.031 49.356C65.91 49.908 64.886 54.002 61.895 54.229ZM59.49 62.031L62.132 62.215C62.631 62.241 63.05 62.18 63.4 62.031C64.231 61.672 64.686 60.806 64.826 59.188L64.835 59.118V58.987C63.881 61.751 59.49 62.031 59.49 62.031ZM61.239 63.221C61.239 63.221 61.825 67.131 56.629 69.073C57.635 68.854 58.413 68.706 58.956 68.706C61.344 68.706 61.939 65.041 62.079 63.222H61.239V63.221Z" fill="#D87E00"/>
<path d="M64.694 55.104C64.152 55.209 63.478 55.244 62.796 55.244C61.23 55.244 59.647 55.052 59.542 55.043C59.271 55.008 59.078 54.763 59.105 54.483C59.14 54.212 59.394 54.019 59.665 54.054C59.691 54.054 62.342 54.369 64.047 54.194C63.898 54.229 63.723 54.247 63.505 54.247C63.504 54.247 64.484 54.509 64.694 55.104ZM59.122 62.005C58.86 61.953 58.588 62.127 58.536 62.399C58.475 62.67 58.65 62.933 58.921 62.985C58.982 62.994 59.839 63.169 60.95 63.212C61.309 63.229 61.685 63.229 62.078 63.212C62.13 62.617 62.13 62.215 62.13 62.215C62.63 62.241 59.149 62.014 59.122 62.005ZM66.058 47.407C66.023 46.935 66.006 46.611 65.997 46.55C64.055 47.215 61.134 46.795 61.099 46.786C60.828 46.751 60.574 46.935 60.53 47.206C60.495 47.477 60.679 47.731 60.95 47.775C61.029 47.784 61.973 47.924 63.172 47.924C64.082 47.924 65.14 47.845 66.067 47.565V47.539C66.067 47.494 66.058 47.45 66.058 47.407ZM42.871 17.598L41.017 23.327L40.833 23.406C40.606 23.502 40.387 23.555 40.168 23.572C40.116 23.581 40.054 23.581 39.993 23.581C39.608 23.581 39.249 23.476 38.935 23.301C39.04 23.021 39.136 22.741 39.232 22.461C39.538 22.653 39.905 22.767 40.317 22.662L40.623 21.717C40.632 21.673 40.649 21.638 40.658 21.603L42.04 17.335C42.189 16.854 41.953 16.329 41.498 16.137C41.48 16.128 41.463 16.119 41.446 16.119C41.586 15.857 41.735 15.603 41.892 15.367C42.722 15.734 43.151 16.714 42.871 17.598ZM25.159 65.425L23.952 65.303L18.678 64.778C17.952 61.445 17.506 56.783 17.506 51.623C17.506 45.561 18.127 40.191 19.08 36.85C19.08 36.849 20.435 58.856 25.159 65.425Z" fill="#884600"/>
<path d="M40.622 21.718C40.255 22.996 39.283 28.079 37.918 29.033C36.509 30.004 31.592 33.574 29.754 35.569C27.916 37.564 25.781 37.284 24.924 36.75C25.869 35.901 34.103 29.225 35.853 28.884C36.807 28.7 38.023 25.857 38.933 23.301C39.038 23.021 39.134 22.741 39.231 22.461C39.537 22.653 39.905 22.767 40.316 22.662L40.622 21.718ZM62.315 37.129H48.128C48.119 37.138 48.119 37.138 48.119 37.138C48.119 37.138 48.023 38.258 50.454 38.258H62.988C64.169 38.258 67.353 38.582 67.554 39.789C67.405 37.068 62.315 37.129 62.315 37.129Z" fill="#FCD222"/>
<path d="M40.623 21.717C40.518 22.084 40.369 22.767 40.168 23.571C40.116 23.58 40.054 23.58 39.993 23.58C39.608 23.58 39.249 23.475 38.935 23.3C39.04 23.02 39.136 22.74 39.232 22.46C39.538 22.652 39.905 22.766 40.317 22.661L40.623 21.717Z" fill="#D87E00"/>
</svg>
